<svg xmlns="http://www.w3.org/2000/svg" viewBox="0 0 64.03 13.33"><defs><style>.cls-1{fill:#373737;}.cls-2{fill:#2778b3;}.cls-3{fill:#074578;}</style></defs><title>afterpay</title><g id="Layer_2" data-name="Layer 2"><g id="Layer_1-2" data-name="Layer 1"><path class="cls-1" d="M32.23,4.41A3.17,3.17,0,0,1,30,9.84a2.18,2.18,0,0,1-1.51-.6h-.07v3.58l-1.62.51V3.61h1.62v.48L28.49,4A2,2,0,0,1,30,3.49a3.22,3.22,0,0,1,2.26.92m-.69,2.26A1.58,1.58,0,1,0,30,8.29a1.62,1.62,0,0,0,1.57-1.62"/><path class="cls-1" d="M34.67,8.93a3.18,3.18,0,0,1,2.26-5.44,2.18,2.18,0,0,1,1.51.6l.07,0V3.61h1.61V9.73H38.51V9.25l-.07.07a2,2,0,0,1-1.51.53,3.25,3.25,0,0,1-2.26-.92m.68-2.26a1.58,1.58,0,1,0,1.58-1.62,1.62,1.62,0,0,0-1.58,1.62"/><path class="cls-1" d="M34.67,8.93a3.18,3.18,0,0,1,2.26-5.44,2.18,2.18,0,0,1,1.51.6l.07,0V3.61h1.61V9.73H38.51V9.25l-.07.07a2,2,0,0,1-1.51.53,3.25,3.25,0,0,1-2.26-.92m.68-2.26a1.58,1.58,0,1,0,1.58-1.62,1.62,1.62,0,0,0-1.58,1.62"/><polygon class="cls-1" points="41.74 13.29 43.2 9.74 40.75 3.61 42.54 3.61 44.07 7.42 45.62 3.61 47.39 3.61 43.49 13.29 41.74 13.29"/><polygon class="cls-1" points="41.74 13.29 43.2 9.74 40.75 3.61 42.54 3.61 44.07 7.42 45.62 3.61 47.39 3.61 43.49 13.29 41.74 13.29"/><path class="cls-1" d="M3.13,9.84a3.17,3.17,0,0,1-2.22-.9,3.17,3.17,0,0,1,0-4.44,3.22,3.22,0,0,1,2.22-.89,3.17,3.17,0,0,1,2,.82l.13.11v-.8h1v6h-1v-.9L5.13,9a3.23,3.23,0,0,1-2,.83m0-5.27A2.15,2.15,0,1,0,5.27,6.67h0A2.16,2.16,0,0,0,3.13,4.51"/><path class="cls-1" d="M8.05,9.65v-5H7.14V3.71h.91V1.93A1.93,1.93,0,0,1,10,0h1.29L11,.94H10a1,1,0,0,0-1,1V3.68h1.89v.94H9v5Z"/><path class="cls-1" d="M14.67,9.65a2,2,0,0,1-1.95-2v-3h-.91V3.69h.91V0h1V3.69H15.6v.94H13.71v3a1,1,0,0,0,1,1h1l.25.94Z"/><path class="cls-1" d="M18.94,9.76a2.64,2.64,0,0,1-2-.91A3.06,3.06,0,0,1,16.13,7a1.22,1.22,0,0,1,0-.27A3.36,3.36,0,0,1,16.21,6,3.17,3.17,0,0,1,17,4.55a2.73,2.73,0,0,1,2-.9,2.77,2.77,0,0,1,2,.9A2.93,2.93,0,0,1,21.7,6a4.35,4.35,0,0,1,.07.88H17.06V7a2,2,0,0,0,1.85,1.86,2.48,2.48,0,0,0,1.51-.62l.83.49a3.89,3.89,0,0,1-.74.6,3.46,3.46,0,0,1-1.57.44m0-5.2a2,2,0,0,0-1.77,1.38h0l-.06.12h3.68l-.07-.14A1.93,1.93,0,0,0,19,4.54"/><path class="cls-1" d="M22.75,9.65v-6h1V4.4l.14-.15A3.64,3.64,0,0,1,26,3.56l-.24,1a2,2,0,0,0-2,1.92V9.66Z"/><path class="cls-2" d="M56,5.3l1.73-1-.32-.58c-.18-.33-.11-.47.27-.47H61c.33,0,.41.14.25.43-.55,1-1.11,1.94-1.67,2.9-.18.31-.34.31-.53,0s-.14-.24-.34-.59L57,7l.12.21c.43.74.62,1.1,1.06,1.84A1.34,1.34,0,0,0,60,9.56a1.41,1.41,0,0,0,.44-.4,2.9,2.9,0,0,0,.19-.29l3.15-5.46A2,2,0,0,0,64,2.84a1.31,1.31,0,0,0-1-1.57,1.53,1.53,0,0,0-.3,0H56a1.33,1.33,0,0,0-1.19,1.94c.15.29.33.57.49.85.31.54.39.68.74,1.27"/><path class="cls-3" d="M51,10.93v-2h-.7c-.38,0-.46-.14-.27-.47.54-1,1.1-1.91,1.66-2.87.17-.28.31-.31.49,0,.56,1,1.11,1.91,1.66,2.88.17.3.09.44-.26.45h-.67v2h2.34a1.32,1.32,0,0,0,1.36-1.26,1.42,1.42,0,0,0-.13-.61l-.15-.3L53.21,3.32a2.76,2.76,0,0,0-.39-.51A1.31,1.31,0,0,0,51,2.9a1.77,1.77,0,0,0-.16.22C49.68,5,48.56,7,47.45,8.92a1.32,1.32,0,0,0,.45,1.81,1.25,1.25,0,0,0,.62.19H51"/></g></g></svg>