<?xml version="1.0" encoding="utf-8"?>
<!-- Generator: Adobe Illustrator 23.0.3, SVG Export Plug-In . SVG Version: 6.00 Build 0)  -->
<svg version="1.1" id="Layer_1" focusable="false" xmlns="http://www.w3.org/2000/svg" xmlns:xlink="http://www.w3.org/1999/xlink"
	 x="0px" y="0px" viewBox="0 0 512 512" style="enable-background:new 0 0 512 512;" xml:space="preserve">
<style type="text/css">
	.st0{fill:#FFFFFF;stroke:#000000;stroke-miterlimit:10;}
</style>
<ellipse class="st0" cx="263.1" cy="256.1" rx="183.1" ry="159.1"/>
<path d="M504,256c0,137-111,248-248,248S8,393,8,256S119,8,256,8S504,119,504,256z M227.3,387.3l184-184c6.2-6.2,6.2-16.4,0-22.6
	l-22.6-22.6c-6.2-6.2-16.4-6.2-22.6,0L216,308.1l-70.1-70.1c-6.2-6.2-16.4-6.2-22.6,0l-22.6,22.6c-6.2,6.2-6.2,16.4,0,22.6l104,104
	C210.9,393.6,221.1,393.6,227.3,387.3L227.3,387.3z"/>
</svg>
