<svg xmlns="http://www.w3.org/2000/svg" viewBox="0 0 200.9 173.09"><defs><style>.cls-1{fill:#fff;stroke:#231f20;stroke-miterlimit:10;stroke-width:1.01px;}.cls-2{fill:#231f20;}</style></defs><g id="Layer_2" data-name="Layer 2"><g id="Layer_1-2" data-name="Layer 1"><rect class="cls-1" x="0.5" y="0.5" width="199.89" height="172.08"/><path class="cls-2" d="M17.16,6.53h5V26.09H18.28l-6.91-9.84v9.84h-5V6.53h3.88l6.91,9.84Z"/><path class="cls-2" d="M33.9,12.12h4.64v14H33.9V24.7A4.4,4.4,0,0,1,30,26.48c-3,0-5.14-2.12-5.14-6V12.12h4.64v7.77a2,2,0,0,0,2.1,2.21c1.45,0,2.29-.9,2.29-2.55Z"/><path class="cls-2" d="M49.89,16.56H47v4.05c0,1.23.81,1.4,2.91,1.29v4.19q-4.16.51-5.87-.75t-1.68-4.61V16.56h-2.1V12.12h2.1V9.6L47,8.2v3.92h2.91Z"/><path class="cls-2" d="M56.87,14.72a4.2,4.2,0,0,1,4.2-2.88V17a4,4,0,0,0-2.91.59,3,3,0,0,0-1.29,2.74v5.78H52.23v-14h4.64Z"/><path class="cls-2" d="M63.24,10.19A2.67,2.67,0,1,1,67,6.41a2.59,2.59,0,0,1,0,3.78A2.7,2.7,0,0,1,63.24,10.19Zm-.42,15.9v-14h4.64v14Z"/><path class="cls-2" d="M78.81,16.56H75.9v4.05c0,1.23.82,1.4,2.91,1.29v4.19c-2.77.34-4.72.09-5.87-.75s-1.68-2.41-1.68-4.61V16.56H69.17V12.12h2.09V9.6L75.9,8.2v3.92h2.91Z"/><path class="cls-2" d="M81.38,10.19a2.67,2.67,0,0,1,3.78-3.78,2.59,2.59,0,0,1,0,3.78A2.7,2.7,0,0,1,81.38,10.19ZM81,26.09v-14H85.6v14Z"/><path class="cls-2" d="M89.77,24.36a7.08,7.08,0,0,1-2.18-5.26,7,7,0,0,1,2.18-5.22,7.25,7.25,0,0,1,5.28-2.16,7.16,7.16,0,0,1,5.28,2.16,7,7,0,0,1,2.18,5.22,7.34,7.34,0,0,1-7.46,7.38A7.22,7.22,0,0,1,89.77,24.36Zm8.1-5.26a2.81,2.81,0,1,0-5.62,0,2.81,2.81,0,1,0,5.62,0Z"/><path class="cls-2" d="M118.22,17.73v8.36h-4.64V18.32a2,2,0,0,0-2.1-2.21c-1.45,0-2.29.9-2.29,2.55v7.43h-4.64v-14h4.64v1.39a4.41,4.41,0,0,1,3.89-1.79C116.1,11.72,118.22,13.85,118.22,17.73Z"/><path class="cls-2" d="M139.29,11.36h-7v3.19h6.87v4.83h-6.87v6.71h-5V6.53h12Z"/><path class="cls-2" d="M151.42,12.12h4.64v14h-4.64V24.81a4.9,4.9,0,0,1-4,1.67,6,6,0,0,1-4.69-2.09,7.7,7.7,0,0,1-1.88-5.29,7.57,7.57,0,0,1,1.88-5.25,6,6,0,0,1,4.69-2.13,4.91,4.91,0,0,1,4,1.68Zm-2.93,10a2.82,2.82,0,0,0,2.12-.84,3.06,3.06,0,0,0,.81-2.21,3.06,3.06,0,0,0-.81-2.2,3.11,3.11,0,0,0-4.25,0,3.06,3.06,0,0,0-.81,2.2,3.06,3.06,0,0,0,.81,2.21A2.82,2.82,0,0,0,148.49,22.15Z"/><path class="cls-2" d="M160.17,24.36A7.1,7.1,0,0,1,158,19.1a7.08,7.08,0,0,1,2.13-5.25,7.53,7.53,0,0,1,11.68,1.48l-4,2.29a2.55,2.55,0,0,0-2.43-1.37,2.71,2.71,0,0,0-2.74,2.85A2.71,2.71,0,0,0,165.45,22a2.52,2.52,0,0,0,2.43-1.4l4,2.29a7.53,7.53,0,0,1-11.68,1.51Z"/><path class="cls-2" d="M182,16.56h-2.91v4.05c0,1.23.81,1.4,2.91,1.29v4.19q-4.16.51-5.87-.75t-1.68-4.61V16.56h-2.1V12.12h2.1V9.6l4.64-1.4v3.92H182Z"/><path class="cls-2" d="M190.86,17.32c2,.36,4.53,1.37,4.5,4.47a3.91,3.91,0,0,1-1.79,3.55,7.82,7.82,0,0,1-4.25,1.14c-3.13,0-5.23-1.11-6.26-3.32l4.05-2a2.11,2.11,0,0,0,2.18,1.53q1.26,0,1.26-.75c0-.53-1.06-.81-2.41-1.15-1.92-.42-4.44-1.45-4.41-4.33A4.12,4.12,0,0,1,185.38,13a6.51,6.51,0,0,1,4-1.23c2.76,0,4.66,1.09,5.76,3.25l-3.92,1.76a1.88,1.88,0,0,0-1.73-1.2c-.7,0-1,.22-1,.67S189.51,17,190.86,17.32Z"/><path class="cls-2" d="M6.08,36.18l.56-.32a1.22,1.22,0,0,0,1.3.88c.67,0,1-.3,1-.75a.57.57,0,0,0-.27-.52,3.53,3.53,0,0,0-.88-.37l-.46-.16L7,34.76a1,1,0,0,1-.35-.25,1.28,1.28,0,0,1,.14-1.81,1.62,1.62,0,0,1,1.08-.38,1.75,1.75,0,0,1,1.65,1.07l-.54.31A1.12,1.12,0,0,0,7.82,33c-.53,0-.88.27-.88.72a.54.54,0,0,0,.23.49,2.88,2.88,0,0,0,.79.35l.29.09c.05,0,.14,0,.25.09a2.82,2.82,0,0,1,.49.23,1.22,1.22,0,0,1,.38.32,1,1,0,0,1,.24.73,1.25,1.25,0,0,1-.47,1,1.86,1.86,0,0,1-1.21.37A1.83,1.83,0,0,1,6.08,36.18Z"/><path class="cls-2" d="M10.82,35.82a1.19,1.19,0,0,0,1.26,1,1.1,1.1,0,0,0,1-.51l.51.3a1.71,1.71,0,0,1-1.53.78,1.86,1.86,0,0,1-1.35-.51,2,2,0,0,1,0-2.63A1.79,1.79,0,0,1,12,33.71a1.58,1.58,0,0,1,1.24.54,1.85,1.85,0,0,1,.49,1.3,2.45,2.45,0,0,1,0,.27Zm0-.53h2.33a1.11,1.11,0,0,0-1.12-1A1.17,1.17,0,0,0,10.82,35.29Z"/><path class="cls-2" d="M15.07,34.39a1.09,1.09,0,0,1,1.08-.65v.63a1.1,1.1,0,0,0-.76.24,1,1,0,0,0-.32.83v1.84h-.61V33.8h.61Z"/><path class="cls-2" d="M19.18,33.8h.65l-1.39,3.48h-.71L16.34,33.8H17l1.09,2.83Z"/><path class="cls-2" d="M20.25,32.77a.41.41,0,1,1,.81,0,.41.41,0,0,1-.81,0Zm.1,4.51V33.8H21v3.48Z"/><path class="cls-2" d="M25,35.15v2.13h-.61v-2.1a.8.8,0,0,0-.86-.89c-.61,0-1,.37-1,1.15v1.84h-.6V33.8h.6v.5a1.24,1.24,0,0,1,1.13-.59A1.31,1.31,0,0,1,25,35.15Z"/><path class="cls-2" d="M28.7,33.8h.6v3.34a1.44,1.44,0,0,1-.52,1.19,1.9,1.9,0,0,1-1.25.43,1.73,1.73,0,0,1-1.65-.85l.53-.29a1.12,1.12,0,0,0,1.13.58,1,1,0,0,0,1.16-1.06v-.5a1.46,1.46,0,0,1-1.31.7,1.71,1.71,0,0,1-1.26-.53,1.8,1.8,0,0,1-.51-1.29,1.76,1.76,0,0,1,.51-1.28,1.71,1.71,0,0,1,1.26-.53,1.47,1.47,0,0,1,1.31.69Zm-.35.84a1.29,1.29,0,0,0-1.77,0,1.19,1.19,0,0,0-.36.88,1.16,1.16,0,0,0,.36.88,1.24,1.24,0,0,0,2.12-.88A1.22,1.22,0,0,0,28.35,34.64Z"/><path class="cls-2" d="M31.76,36.18l.55-.32a1.23,1.23,0,0,0,1.3.88c.67,0,1-.3,1-.75a.59.59,0,0,0-.26-.52,3.71,3.71,0,0,0-.88-.37L33,34.94l-.4-.18a1.19,1.19,0,0,1-.36-.25,1.28,1.28,0,0,1,.14-1.81,1.64,1.64,0,0,1,1.09-.38,1.73,1.73,0,0,1,1.64,1.07l-.54.31A1.12,1.12,0,0,0,33.5,33c-.53,0-.89.27-.89.72a.57.57,0,0,0,.23.49,3,3,0,0,0,.79.35l.29.09.26.09a2.7,2.7,0,0,1,.48.23,1.11,1.11,0,0,1,.38.32,1,1,0,0,1,.24.73,1.27,1.27,0,0,1-.46,1,1.91,1.91,0,0,1-1.22.37A1.81,1.81,0,0,1,31.76,36.18Z"/><path class="cls-2" d="M35.89,32.77a.41.41,0,1,1,.81,0,.41.41,0,0,1-.81,0Zm.1,4.51V33.8h.61v3.48Z"/><path class="cls-2" d="M38.23,36.7h1.85v.58H37.4v-.4l1.77-2.5h-1.7V33.8H40v.41Z"/><path class="cls-2" d="M41,35.82a1.19,1.19,0,0,0,1.26,1,1.08,1.08,0,0,0,1-.51l.52.3a1.71,1.71,0,0,1-1.53.78,1.86,1.86,0,0,1-1.35-.51,1.94,1.94,0,0,1,0-2.63,1.79,1.79,0,0,1,1.32-.52,1.59,1.59,0,0,1,1.24.54,1.85,1.85,0,0,1,.49,1.3,2.45,2.45,0,0,1,0,.27Zm0-.53h2.33a1.11,1.11,0,0,0-1.12-1A1.17,1.17,0,0,0,41,35.29Z"/><path class="cls-2" d="M44.58,34.17a.45.45,0,0,1,.45-.45.45.45,0,0,1,0,.9A.45.45,0,0,1,44.58,34.17Zm0,2.74a.46.46,0,0,1,.45-.46.45.45,0,0,1,.45.46.44.44,0,0,1-.45.45A.45.45,0,0,1,44.58,36.91Z"/><path class="cls-2" d="M47.87,37.28v-.53L49.59,35a1.9,1.9,0,0,0,.69-1.18.82.82,0,0,0-.86-.87,1,1,0,0,0-1,.65l-.55-.32a1.66,1.66,0,0,1,1.54-1,1.55,1.55,0,0,1,1.07.4,1.45,1.45,0,0,1,.45,1.09,2.43,2.43,0,0,1-.87,1.61l-1.25,1.24H51v.62Z"/><path class="cls-2" d="M53.82,36.85a1.78,1.78,0,0,1-.52-1.31,1.76,1.76,0,0,1,.52-1.3,1.79,1.79,0,0,1,1.31-.53,1.68,1.68,0,0,1,1.54.91l-.51.3a1.12,1.12,0,0,0-1-.62,1.19,1.19,0,0,0-.88.36,1.21,1.21,0,0,0-.35.88,1.22,1.22,0,0,0,.35.88,1.18,1.18,0,0,0,.88.35,1.16,1.16,0,0,0,1-.6l.51.3a1.75,1.75,0,0,1-1.56.9A1.78,1.78,0,0,1,53.82,36.85Z"/><path class="cls-2" d="M60.13,33.8h.6v3.48h-.6v-.6a1.48,1.48,0,0,1-1.32.69,1.64,1.64,0,0,1-1.24-.53,1.81,1.81,0,0,1-.52-1.3,1.79,1.79,0,0,1,.52-1.29,1.65,1.65,0,0,1,1.24-.54,1.48,1.48,0,0,1,1.32.69Zm-.36,2.63a1.2,1.2,0,0,0,.36-.89,1.18,1.18,0,0,0-.36-.88,1.14,1.14,0,0,0-.88-.36,1.15,1.15,0,0,0-.88.36,1.21,1.21,0,0,0-.35.88,1.23,1.23,0,0,0,.35.89,1.19,1.19,0,0,0,.88.36A1.18,1.18,0,0,0,59.77,36.43Z"/><path class="cls-2" d="M64.82,34.25a1.79,1.79,0,0,1,.52,1.29,1.81,1.81,0,0,1-.52,1.3,1.64,1.64,0,0,1-1.24.53,1.48,1.48,0,0,1-1.32-.69v2h-.6V33.8h.6v.6a1.48,1.48,0,0,1,1.32-.69A1.65,1.65,0,0,1,64.82,34.25Zm-.44,2.18a1.23,1.23,0,0,0,.35-.89,1.21,1.21,0,0,0-.35-.88,1.15,1.15,0,0,0-.88-.36,1.14,1.14,0,0,0-.88.36,1.18,1.18,0,0,0-.36.88,1.2,1.2,0,0,0,.36.89,1.18,1.18,0,0,0,.88.36A1.19,1.19,0,0,0,64.38,36.43Z"/><path class="cls-2" d="M67.2,35.26c.54.12,1.27.32,1.26,1.07a.94.94,0,0,1-.37.76,1.51,1.51,0,0,1-.93.28,1.42,1.42,0,0,1-1.39-.81l.53-.3a.85.85,0,0,0,.86.54c.4,0,.69-.14.69-.47s-.31-.43-.69-.52c-.55-.14-1.26-.32-1.26-1.06a1,1,0,0,1,.35-.75,1.35,1.35,0,0,1,.88-.29,1.33,1.33,0,0,1,1.25.73l-.5.28a.73.73,0,0,0-.75-.44c-.34,0-.62.16-.62.46S66.82,35.16,67.2,35.26Z"/><path class="cls-2" d="M71.55,33.8h.6v3.48h-.6v-.5a1.23,1.23,0,0,1-1.13.59,1.3,1.3,0,0,1-1.35-1.43V33.8h.6v2.1a.81.81,0,0,0,.87.89c.6,0,1-.36,1-1.14Z"/><path class="cls-2" d="M73.07,37.28V32.2h.61v5.08Z"/><path class="cls-2" d="M75,35.82a1.19,1.19,0,0,0,1.26,1,1.08,1.08,0,0,0,1-.51l.52.3a1.71,1.71,0,0,1-1.53.78,1.77,1.77,0,0,1-1.87-1.83,1.81,1.81,0,0,1,.51-1.31,1.79,1.79,0,0,1,1.31-.52,1.6,1.6,0,0,1,1.25.54,1.85,1.85,0,0,1,.49,1.3,2.45,2.45,0,0,1,0,.27Zm0-.53h2.32a1.1,1.1,0,0,0-1.12-1A1.17,1.17,0,0,0,75,35.29Z"/><path class="cls-2" d="M79.74,35.26c.54.12,1.26.32,1.26,1.07a.94.94,0,0,1-.37.76,1.51,1.51,0,0,1-.93.28,1.42,1.42,0,0,1-1.39-.81l.52-.3a.86.86,0,0,0,.87.54c.39,0,.69-.14.69-.47s-.31-.43-.69-.52c-.55-.14-1.26-.32-1.26-1.06a1,1,0,0,1,.34-.75,1.38,1.38,0,0,1,.89-.29,1.33,1.33,0,0,1,1.25.73l-.51.28a.71.71,0,0,0-.74-.44c-.34,0-.62.16-.62.46S79.36,35.16,79.74,35.26Z"/><path class="cls-2" d="M10.17,48.12l-.36-1.06H7.46l-.35,1.06H5.86l2.06-5.89H9.36l2.07,5.89ZM7.84,46H9.45l-.81-2.4Z"/><path class="cls-2" d="M18.2,45.53v2.59H17.12V45.6c0-.5-.27-.8-.71-.8s-.78.34-.78,1v2.36H14.54V45.6c0-.5-.26-.8-.71-.8s-.79.34-.79,1v2.36H12V43.91H13v.45a1.3,1.3,0,0,1,1.17-.57,1.26,1.26,0,0,1,1.15.61,1.39,1.39,0,0,1,1.25-.61A1.56,1.56,0,0,1,18.2,45.53Z"/><path class="cls-2" d="M21.13,48.24a2.19,2.19,0,1,1,1.59-.64A2.15,2.15,0,0,1,21.13,48.24Zm0-1.06a1.11,1.11,0,0,0,.82-.33,1.22,1.22,0,0,0,0-1.67,1.11,1.11,0,0,0-.82-.33,1.07,1.07,0,0,0-.81.33,1.25,1.25,0,0,0,0,1.67A1.07,1.07,0,0,0,21.13,47.18Z"/><path class="cls-2" d="M26.91,43.91H28v4.21H26.91v-.47a1.38,1.38,0,0,1-1.25.59,1.52,1.52,0,0,1-1.15-.46,1.78,1.78,0,0,1-.45-1.28V43.91h1.09v2.45a.78.78,0,0,0,.83.87c.57,0,.93-.35.93-1Z"/><path class="cls-2" d="M32.47,44.26a1.75,1.75,0,0,1,.45,1.28v2.58H31.84V45.67A.79.79,0,0,0,31,44.8c-.56,0-.92.35-.92,1.05v2.27H29V43.91h1.09v.47a1.4,1.4,0,0,1,1.25-.59A1.49,1.49,0,0,1,32.47,44.26Z"/><path class="cls-2" d="M36.26,45h-.95v1.76c0,.45.33.46.95.43v1c-1.49.17-2-.26-2-1.41V45h-.73v-1h.73v-.85l1.09-.33v1.18h.95Z"/><path class="cls-2" d="M41.45,42.23a2,2,0,0,1,1.43.57,2,2,0,0,1,0,2.81,2,2,0,0,1-1.43.57h-1v1.94H39.25V42.23Zm0,2.87a.9.9,0,0,0,0-1.79h-1V45.1Z"/><path class="cls-2" d="M44.81,46.46a1.07,1.07,0,0,0,1.18.79,1.12,1.12,0,0,0,.95-.42l.87.51a2.07,2.07,0,0,1-1.83.9,2.27,2.27,0,0,1-1.68-.63A2.16,2.16,0,0,1,43.67,46a2.19,2.19,0,0,1,.62-1.59,2.12,2.12,0,0,1,1.6-.64,2,2,0,0,1,1.53.64A2.23,2.23,0,0,1,48,46a2.32,2.32,0,0,1,0,.44Zm2.13-.84a1,1,0,0,0-1-.85,1,1,0,0,0-1.1.85Z"/><path class="cls-2" d="M49.87,44.63a1.3,1.3,0,0,1,1.28-.8V45a1.25,1.25,0,0,0-.89.2,1,1,0,0,0-.39.87v2H48.78V43.91h1.09Z"/><path class="cls-2" d="M53.63,46.78l1-.58a1.31,1.31,0,0,0,1.35.9c.65,0,1-.26,1-.62a.54.54,0,0,0-.28-.48,4.37,4.37,0,0,0-1-.38,3.82,3.82,0,0,1-1.22-.55,1.42,1.42,0,0,1-.55-1.21,1.55,1.55,0,0,1,.56-1.27,2.06,2.06,0,0,1,1.37-.48,2.27,2.27,0,0,1,2.11,1.32l-1,.56a1.17,1.17,0,0,0-1.13-.75c-.48,0-.77.24-.77.59a.53.53,0,0,0,.23.45,3.35,3.35,0,0,0,.89.37l.4.14a2.05,2.05,0,0,1,.38.14,1.59,1.59,0,0,1,.37.18,1.74,1.74,0,0,1,.56.52,1.66,1.66,0,0,1,.22.83,1.57,1.57,0,0,1-.6,1.3,2.38,2.38,0,0,1-1.54.48A2.29,2.29,0,0,1,53.63,46.78Z"/><path class="cls-2" d="M59.83,46.46a1.07,1.07,0,0,0,1.19.79,1.11,1.11,0,0,0,.94-.42l.88.51a2.1,2.1,0,0,1-1.84.9,2.29,2.29,0,0,1-1.68-.63,2.32,2.32,0,0,1,0-3.18,2.12,2.12,0,0,1,1.6-.64,2,2,0,0,1,1.52.64A2.2,2.2,0,0,1,63.05,46a3.59,3.59,0,0,1,0,.44ZM62,45.62a1,1,0,0,0-1-.85,1.06,1.06,0,0,0-1.11.85Z"/><path class="cls-2" d="M64.89,44.63a1.3,1.3,0,0,1,1.28-.8V45a1.25,1.25,0,0,0-.89.2,1,1,0,0,0-.39.87v2H63.8V43.91h1.09Z"/><path class="cls-2" d="M69.57,43.91h1.2l-1.6,4.21H67.93l-1.6-4.21h1.2l1,3Z"/><path class="cls-2" d="M71.17,42.74a.67.67,0,1,1,.66.67A.67.67,0,0,1,71.17,42.74Zm.12,5.38V43.91h1.09v4.21Z"/><path class="cls-2" d="M76.85,44.26a1.75,1.75,0,0,1,.45,1.28v2.58H76.22V45.67a.78.78,0,0,0-.83-.87c-.57,0-.93.35-.93,1.05v2.27H73.37V43.91h1.09v.47a1.4,1.4,0,0,1,1.25-.59A1.46,1.46,0,0,1,76.85,44.26Z"/><path class="cls-2" d="M81.46,43.91h1.06v4a1.79,1.79,0,0,1-.65,1.49,2.35,2.35,0,0,1-1.55.51,2.15,2.15,0,0,1-2-1l.93-.53a1.15,1.15,0,0,0,1.1.59,1,1,0,0,0,1.11-1v-.46a1.59,1.59,0,0,1-1.35.65,2,2,0,0,1-1.5-.63,2.24,2.24,0,0,1,0-3.06,2,2,0,0,1,1.49-.63,1.58,1.58,0,0,1,1.35.64Zm-.34,1.22a1.25,1.25,0,0,0-1.69,0,1.09,1.09,0,0,0-.33.82,1.18,1.18,0,0,0,2.36,0A1.06,1.06,0,0,0,81.12,45.13Z"/><path class="cls-2" d="M144.42,44.89a1.4,1.4,0,0,1-1-.41,1.33,1.33,0,0,1-.41-1,1.35,1.35,0,0,1,.41-1,1.39,1.39,0,0,1,1-.4,1.37,1.37,0,0,1,1,.4,1.31,1.31,0,0,1,.4,1,1.34,1.34,0,0,1-.4,1A1.41,1.41,0,0,1,144.42,44.89Zm-.83,2.34L147.43,43l.52.28-3.85,4.28Zm1.2-3.34a.57.57,0,0,0,0-.77.56.56,0,0,0-.76,0,.59.59,0,0,0,0,.77A.56.56,0,0,0,144.79,43.89Zm2.47,4.33a1.37,1.37,0,0,1-1-.4,1.41,1.41,0,0,1,0-2,1.46,1.46,0,0,1,2,0,1.41,1.41,0,0,1,0,2A1.38,1.38,0,0,1,147.26,48.22Zm0-1.93a.52.52,0,0,0-.52.54.52.52,0,0,0,.52.54.54.54,0,0,0,0-1.08Z"/><path class="cls-2" d="M154.05,42.23a2.66,2.66,0,0,1,2,.85,3.09,3.09,0,0,1,0,4.19,2.66,2.66,0,0,1-2,.85h-2.34V42.23Zm0,4.78a1.63,1.63,0,0,0,1.25-.51,2.07,2.07,0,0,0,0-2.65,1.63,1.63,0,0,0-1.25-.51h-1.18V47Z"/><path class="cls-2" d="M160.87,43.91H162v4.21h-1.08v-.5a1.65,1.65,0,0,1-1.38.62A1.93,1.93,0,0,1,158,47.6a2.41,2.41,0,0,1,0-3.16,1.94,1.94,0,0,1,1.45-.65,1.65,1.65,0,0,1,1.38.62ZM159.7,47.2A1.13,1.13,0,0,0,160.87,46a1.18,1.18,0,0,0-2-.85,1.13,1.13,0,0,0-.33.85,1.2,1.2,0,0,0,.33.86A1.17,1.17,0,0,0,159.7,47.2Z"/><path class="cls-2" d="M162.81,42.74a.67.67,0,1,1,.67.67A.68.68,0,0,1,162.81,42.74Zm.13,5.38V43.91H164v4.21Z"/><path class="cls-2" d="M165,48.12V42h1.08v6.15Z"/><path class="cls-2" d="M169.84,43.91H171l-1.54,4.21a2.11,2.11,0,0,1-2.22,1.69v-1a1,1,0,0,0,1.1-.81l-1.72-4.08h1.18l1.1,2.83Z"/><path class="cls-2" d="M175.13,48.12l-2-5.89h1.27l1.44,4.53,1.43-4.53h1.27l-2,5.89Z"/><path class="cls-2" d="M181.77,43.91h1.08v4.21h-1.08v-.5a1.65,1.65,0,0,1-1.38.62A1.89,1.89,0,0,1,179,47.6a2.38,2.38,0,0,1,0-3.16,1.9,1.9,0,0,1,1.44-.65,1.65,1.65,0,0,1,1.38.62ZM180.6,47.2A1.13,1.13,0,0,0,181.77,46a1.18,1.18,0,0,0-2-.85,1.13,1.13,0,0,0-.33.85,1.2,1.2,0,0,0,.33.86A1.17,1.17,0,0,0,180.6,47.2Z"/><path class="cls-2" d="M183.84,48.12V42h1.08v6.15Z"/><path class="cls-2" d="M188.7,43.91h1.08v4.21H188.7v-.47a1.38,1.38,0,0,1-1.26.59,1.51,1.51,0,0,1-1.14-.46,1.78,1.78,0,0,1-.45-1.28V43.91h1.09v2.45a.78.78,0,0,0,.83.87c.57,0,.93-.35.93-1Z"/><path class="cls-2" d="M191.7,46.46a1.06,1.06,0,0,0,1.18.79,1.12,1.12,0,0,0,1-.42l.87.51a2.07,2.07,0,0,1-1.83.9,2.27,2.27,0,0,1-1.68-.63,2.16,2.16,0,0,1-.63-1.59,2.19,2.19,0,0,1,.62-1.59,2.12,2.12,0,0,1,1.6-.64,2,2,0,0,1,1.53.64,2.23,2.23,0,0,1,.6,1.59,2.32,2.32,0,0,1,0,.44Zm2.13-.84a1,1,0,0,0-1.05-.85,1,1,0,0,0-1.1.85Z"/><path class="cls-2" d="M7.77,63.33,5.89,58.08h.75l1.52,4.38,1.52-4.38h.76L8.55,63.33Z"/><path class="cls-2" d="M10.73,58.46a.44.44,0,1,1,.44.44A.44.44,0,0,1,10.73,58.46Zm.11,4.87V59.58h.65v3.75Z"/><path class="cls-2" d="M14.53,60.21h-1v2c0,.57.33.53,1,.5v.58c-1.14.16-1.65-.15-1.65-1.08v-2h-.74v-.63h.74v-.85l.65-.2v1h1Z"/><path class="cls-2" d="M18.23,59.58h.65v3.75h-.65v-.64a1.61,1.61,0,0,1-1.42.74,1.81,1.81,0,0,1-1.35-.57,2.06,2.06,0,0,1,0-2.8,1.82,1.82,0,0,1,1.35-.58,1.6,1.6,0,0,1,1.42.75Zm-.39,2.84a1.3,1.3,0,0,0,.39-1,1.29,1.29,0,0,0-.39-1,1.27,1.27,0,0,0-.95-.39,1.28,1.28,0,0,0-1,.39,1.32,1.32,0,0,0-.38,1,1.34,1.34,0,0,0,.38,1,1.31,1.31,0,0,0,1,.38A1.3,1.3,0,0,0,17.84,62.42Z"/><path class="cls-2" d="M25.34,61v2.33h-.66V61a.8.8,0,0,0-.82-.91c-.57,0-.93.36-.93,1.14v2.08h-.65V61c0-.58-.31-.91-.8-.91s-1,.38-1,1.14v2.08h-.65V59.58h.65v.5a1.27,1.27,0,0,1,1.12-.6,1.18,1.18,0,0,1,1.11.64,1.27,1.27,0,0,1,1.17-.64A1.39,1.39,0,0,1,25.34,61Z"/><path class="cls-2" d="M26.13,58.46a.45.45,0,0,1,.45-.44.44.44,0,0,1,0,.88A.45.45,0,0,1,26.13,58.46Zm.11,4.87V59.58h.66v3.75Z"/><path class="cls-2" d="M31.22,61v2.3h-.65V61.07a.87.87,0,0,0-.93-1c-.66,0-1.09.39-1.09,1.24v2H27.9V59.58h.65v.54a1.32,1.32,0,0,1,1.22-.64A1.41,1.41,0,0,1,31.22,61Z"/><path class="cls-2" d="M34.57,62.64a2.82,2.82,0,0,1,0-3.87,2.65,2.65,0,0,1,2-.79,2.59,2.59,0,0,1,2.26,1.28l-.61.35a1.83,1.83,0,0,0-1.65-1,2,2,0,0,0-1.49.58,2,2,0,0,0-.57,1.47,2,2,0,0,0,2.06,2,1.85,1.85,0,0,0,1.65-1l.61.35a2.43,2.43,0,0,1-.94.94,2.6,2.6,0,0,1-1.32.34A2.65,2.65,0,0,1,34.57,62.64Z"/><path class="cls-2" d="M42.2,64.09a7.34,7.34,0,0,1,0-6.76h.65a7.34,7.34,0,0,0,0,6.76Z"/><path class="cls-2" d="M46.64,59.58h.66v3.75h-.66v-.64a1.59,1.59,0,0,1-1.42.74,1.81,1.81,0,0,1-1.34-.57,2.06,2.06,0,0,1,0-2.8,1.82,1.82,0,0,1,1.34-.58,1.57,1.57,0,0,1,1.42.75Zm-.38,2.84a1.3,1.3,0,0,0,.38-1,1.28,1.28,0,0,0-.38-1,1.27,1.27,0,0,0-.95-.39,1.28,1.28,0,0,0-1,.39,1.32,1.32,0,0,0-.38,1,1.34,1.34,0,0,0,.38,1,1.31,1.31,0,0,0,1,.38A1.3,1.3,0,0,0,46.26,62.42Z"/><path class="cls-2" d="M49.59,61.16c.58.13,1.36.34,1.36,1.15a1,1,0,0,1-.4.81,1.54,1.54,0,0,1-1,.31,1.51,1.51,0,0,1-1.49-.88l.56-.32a.92.92,0,0,0,.93.59c.43,0,.75-.16.75-.51s-.33-.46-.75-.56c-.59-.16-1.36-.35-1.36-1.15a1,1,0,0,1,.38-.8,1.44,1.44,0,0,1,.95-.32,1.46,1.46,0,0,1,1.35.78l-.54.31a.8.8,0,0,0-.81-.48c-.37,0-.67.18-.67.5S49.17,61.05,49.59,61.16Z"/><path class="cls-2" d="M57.13,63.33l-.43-1.17H54.33l-.43,1.17h-.74l2-5.25h.79l2,5.25ZM54.57,61.5h1.89l-1-2.59Z"/><path class="cls-2" d="M59.69,61.16c.59.13,1.37.34,1.36,1.15a1,1,0,0,1-.4.81,1.74,1.74,0,0,1-2.5-.57l.57-.32a.92.92,0,0,0,.93.59c.43,0,.74-.16.74-.51s-.33-.46-.74-.56c-.59-.16-1.36-.35-1.36-1.15a1,1,0,0,1,.38-.8,1.44,1.44,0,0,1,.95-.32,1.46,1.46,0,0,1,1.35.78l-.55.31a.78.78,0,0,0-.8-.48c-.37,0-.67.18-.67.5S59.28,61.05,59.69,61.16Z"/><path class="cls-2" d="M62.07,62.87a2.06,2.06,0,0,1,0-2.82,1.92,1.92,0,0,1,1.42-.57,1.79,1.79,0,0,1,1.65,1l-.54.31a1.2,1.2,0,0,0-1.11-.66,1.3,1.3,0,0,0-1,.38,1.32,1.32,0,0,0-.38,1,1.29,1.29,0,0,0,.38.94,1.27,1.27,0,0,0,1,.39,1.25,1.25,0,0,0,1.13-.66l.55.33a1.9,1.9,0,0,1-1.68,1A2,2,0,0,1,62.07,62.87Z"/><path class="cls-2" d="M67.53,63.43a1.95,1.95,0,0,1-2-2,1.93,1.93,0,0,1,.57-1.41,1.91,1.91,0,0,1,1.4-.57,1.95,1.95,0,0,1,2,2,1.91,1.91,0,0,1-.57,1.4A2,2,0,0,1,67.53,63.43Zm1-1a1.3,1.3,0,0,0,.38-.95,1.3,1.3,0,0,0-1.33-1.34,1.31,1.31,0,0,0-.94.38,1.32,1.32,0,0,0-.38,1,1.3,1.3,0,0,0,.38.95,1.37,1.37,0,0,0,1.89,0Z"/><path class="cls-2" d="M70.94,60.21a1.19,1.19,0,0,1,1.17-.7v.69a1.12,1.12,0,0,0-.82.25,1.06,1.06,0,0,0-.35.9v2h-.65V59.58h.65Z"/><path class="cls-2" d="M76.17,60.06a2.06,2.06,0,0,1,0,2.8,1.81,1.81,0,0,1-1.35.57,1.61,1.61,0,0,1-1.42-.74v.64h-.65V58.08h.65v2.15a1.6,1.6,0,0,1,1.42-.75A1.82,1.82,0,0,1,76.17,60.06Zm-.48,2.36a1.34,1.34,0,0,0,.38-1,1.32,1.32,0,0,0-.38-1,1.28,1.28,0,0,0-1-.39,1.27,1.27,0,0,0-.95.39,1.29,1.29,0,0,0-.39,1,1.35,1.35,0,0,0,2.29,1Z"/><path class="cls-2" d="M77.39,58.46a.44.44,0,1,1,.44.44A.44.44,0,0,1,77.39,58.46Zm.11,4.87V59.58h.66v3.75Z"/><path class="cls-2" d="M79.51,62.87a2,2,0,0,1,1.41-3.39,1.81,1.81,0,0,1,1.66,1l-.55.31a1.2,1.2,0,0,0-1.11-.66,1.31,1.31,0,0,0-1,.38,1.35,1.35,0,0,0-.37,1,1.32,1.32,0,0,0,.37.94,1.28,1.28,0,0,0,1,.39,1.25,1.25,0,0,0,1.13-.66l.56.33a1.9,1.9,0,0,1-1.69,1A1.93,1.93,0,0,1,79.51,62.87Z"/><path class="cls-2" d="M88.67,63.33l-.43-1.17H85.87l-.42,1.17H84.7l2-5.25h.79l2,5.25ZM86.11,61.5H88l-1-2.59Z"/><path class="cls-2" d="M90.23,62.87a2,2,0,0,1,1.41-3.39,1.81,1.81,0,0,1,1.66,1l-.55.31a1.2,1.2,0,0,0-1.11-.66,1.29,1.29,0,0,0-.94.38,1.32,1.32,0,0,0-.38,1,1.29,1.29,0,0,0,.38.94,1.31,1.31,0,0,0,2.07-.27l.56.33a1.9,1.9,0,0,1-1.69,1A1.93,1.93,0,0,1,90.23,62.87Z"/><path class="cls-2" d="M93.86,58.46a.45.45,0,0,1,.45-.44.44.44,0,0,1,0,.88A.45.45,0,0,1,93.86,58.46ZM94,63.33V59.58h.65v3.75Z"/><path class="cls-2" d="M98.74,58.08h.65v5.25h-.65v-.64a1.61,1.61,0,0,1-1.42.74A1.81,1.81,0,0,1,96,62.86a2.06,2.06,0,0,1,0-2.8,1.82,1.82,0,0,1,1.35-.58,1.6,1.6,0,0,1,1.42.75Zm-.39,4.34a1.3,1.3,0,0,0,.39-1,1.29,1.29,0,0,0-.39-1,1.27,1.27,0,0,0-.95-.39,1.28,1.28,0,0,0-1,.39,1.32,1.32,0,0,0-.38,1,1.34,1.34,0,0,0,.38,1,1.31,1.31,0,0,0,1,.38A1.3,1.3,0,0,0,98.35,62.42Z"/><path class="cls-2" d="M100.07,64.09a7.28,7.28,0,0,0,0-6.76h.66a7.34,7.34,0,0,1,0,6.76Z"/><path class="cls-2" d="M106.51,60.21a1.61,1.61,0,0,1,.66,2.77,2,2,0,0,1-1.33.46,1.83,1.83,0,0,1-1.8-1.11l.88-.51a.87.87,0,0,0,.92.61c.53,0,.84-.27.84-.72s-.31-.71-.84-.71h-.23l-.39-.6,1-1.35h-2.06v-1h3.31v.86Z"/><path class="cls-2" d="M110.46,60.21a1.61,1.61,0,0,1,.65,2.77,2,2,0,0,1-1.33.46,1.83,1.83,0,0,1-1.8-1.11l.89-.51a.85.85,0,0,0,.91.61c.53,0,.84-.27.84-.72s-.31-.71-.84-.71h-.22l-.4-.6,1-1.35h-2v-1h3.3v.86Z"/><path class="cls-2" d="M112.72,62.7a3.3,3.3,0,0,1-.56-2,3.21,3.21,0,0,1,.56-2,2,2,0,0,1,3.09,0,3.21,3.21,0,0,1,.56,2,3.3,3.3,0,0,1-.56,2,2,2,0,0,1-3.09,0ZM114.26,59c-.7,0-1.06.61-1.06,1.73s.36,1.72,1.06,1.72,1.08-.61,1.08-1.72S115,59,114.26,59Z"/><path class="cls-2" d="M122.64,61v2.31h-1V61.09c0-.45-.23-.71-.63-.71s-.69.3-.69.85v2.1h-1V61.09c0-.45-.24-.71-.63-.71s-.71.3-.71.85v2.1h-1V59.58h1V60a1.16,1.16,0,0,1,1-.5,1.1,1.1,0,0,1,1,.54,1.28,1.28,0,0,1,1.12-.54A1.38,1.38,0,0,1,122.64,61Z"/><path class="cls-2" d="M126.34,59.58h1v3.58a1.57,1.57,0,0,1-.58,1.32,2.11,2.11,0,0,1-1.38.46,1.91,1.91,0,0,1-1.78-.91l.83-.48a1,1,0,0,0,1,.53.87.87,0,0,0,1-.92v-.41a1.4,1.4,0,0,1-1.2.57,1.78,1.78,0,0,1-1.33-.56,2,2,0,0,1,0-2.72,1.76,1.76,0,0,1,1.33-.56,1.38,1.38,0,0,1,1.2.57Zm-.3,1.09a1,1,0,0,0-.75-.29,1,1,0,0,0-.76.29,1,1,0,1,0,1.81.73A.94.94,0,0,0,126,60.67Z"/><path class="cls-2" d="M7.77,78.35,5.89,73.1h.75l1.52,4.38L9.68,73.1h.76L8.55,78.35Z"/><path class="cls-2" d="M10.73,73.48a.44.44,0,1,1,.87,0,.44.44,0,0,1-.87,0Zm.11,4.87V74.6h.65v3.75Z"/><path class="cls-2" d="M14.53,75.23h-1v2c0,.58.33.54,1,.51v.58c-1.14.15-1.65-.16-1.65-1.09v-2h-.74V74.6h.74v-.86l.65-.19v1h1Z"/><path class="cls-2" d="M18.23,74.6h.65v3.75h-.65v-.64a1.61,1.61,0,0,1-1.42.74,1.81,1.81,0,0,1-1.35-.57,2,2,0,0,1-.55-1.41,2,2,0,0,1,.55-1.39,1.82,1.82,0,0,1,1.35-.58,1.61,1.61,0,0,1,1.42.74Zm-.39,2.84a1.33,1.33,0,0,0,.39-1,1.28,1.28,0,0,0-.39-1,1.27,1.27,0,0,0-.95-.39,1.28,1.28,0,0,0-1,.39,1.31,1.31,0,0,0-.38,1,1.36,1.36,0,0,0,.38,1,1.31,1.31,0,0,0,1,.38A1.3,1.3,0,0,0,17.84,77.44Z"/><path class="cls-2" d="M25.34,76v2.33h-.66V76a.81.81,0,0,0-.82-.92c-.57,0-.93.37-.93,1.14v2.09h-.65V76c0-.58-.31-.92-.8-.92s-1,.39-1,1.14v2.09h-.65V74.6h.65v.5a1.25,1.25,0,0,1,1.12-.6,1.18,1.18,0,0,1,1.11.64,1.27,1.27,0,0,1,1.17-.64A1.39,1.39,0,0,1,25.34,76Z"/><path class="cls-2" d="M26.13,73.48a.45.45,0,0,1,.45-.44.44.44,0,0,1,.43.44.43.43,0,0,1-.43.43A.44.44,0,0,1,26.13,73.48Zm.11,4.87V74.6h.66v3.75Z"/><path class="cls-2" d="M31.22,76.05v2.3h-.65V76.08a.87.87,0,0,0-.93-1c-.66,0-1.09.4-1.09,1.24v2H27.9V74.6h.65v.54a1.32,1.32,0,0,1,1.22-.64A1.4,1.4,0,0,1,31.22,76.05Z"/><path class="cls-2" d="M36.13,73.1a2.3,2.3,0,0,1,1.77.76,2.78,2.78,0,0,1,0,3.73,2.3,2.3,0,0,1-1.77.76H34.08V73.1Zm0,4.59a1.71,1.71,0,0,0,1.31-.56,2.19,2.19,0,0,0,0-2.81,1.67,1.67,0,0,0-1.31-.56H34.77v3.93Z"/><path class="cls-2" d="M41.13,75.25a1.54,1.54,0,0,1,1.36,1.55A1.5,1.5,0,0,1,42,78a2,2,0,0,1-1.28.44A1.75,1.75,0,0,1,39,77.38l.59-.34a1.05,1.05,0,0,0,1.14.73,1,1,0,1,0,0-2h-.18l-.28-.43,1.22-1.64H39.11V73.1h3.16v.61Z"/><path class="cls-2" d="M45.91,79.1a7.26,7.26,0,0,1,0-6.75h.65a7.32,7.32,0,0,0,0,6.75Z"/><path class="cls-2" d="M47.81,77.66a2.73,2.73,0,0,1,2-4.66,2.59,2.59,0,0,1,2.27,1.28l-.61.35a1.85,1.85,0,0,0-1.66-1,2.05,2.05,0,1,0,0,4.1,1.86,1.86,0,0,0,1.66-1l.61.34a2.36,2.36,0,0,1-.94.94,2.54,2.54,0,0,1-1.33.35A2.65,2.65,0,0,1,47.81,77.66Z"/><path class="cls-2" d="M56.12,76.05v2.3h-.65V76.08a.88.88,0,0,0-.93-1c-.66,0-1.09.4-1.09,1.24v2h-.66V73.1h.66v2a1.32,1.32,0,0,1,1.21-.64A1.41,1.41,0,0,1,56.12,76.05Z"/><path class="cls-2" d="M58.79,78.45a2,2,0,1,1,0-4,2,2,0,0,1,1.41.57,2,2,0,0,1,0,2.81A2,2,0,0,1,58.79,78.45Zm1-1a1.34,1.34,0,0,0-1-2.29,1.3,1.3,0,0,0-1.32,1.33,1.32,1.32,0,0,0,.38,1,1.37,1.37,0,0,0,1.89,0Z"/><path class="cls-2" d="M61.55,78.35V72.87h.65v5.48Z"/><path class="cls-2" d="M63.66,76.78a1.28,1.28,0,0,0,1.36,1,1.18,1.18,0,0,0,1.08-.55l.55.32a1.83,1.83,0,0,1-1.65.85,2,2,0,0,1-1.45-.56A2,2,0,0,1,65,74.5a1.73,1.73,0,0,1,1.34.59,2,2,0,0,1,.53,1.39,1.53,1.53,0,0,1,0,.3Zm0-.58h2.51A1.19,1.19,0,0,0,65,75.12,1.24,1.24,0,0,0,63.66,76.2Z"/><path class="cls-2" d="M67.92,77.89a2,2,0,0,1-.56-1.42,1.93,1.93,0,0,1,2-2,1.79,1.79,0,0,1,1.66,1l-.55.32a1.18,1.18,0,0,0-1.11-.66,1.29,1.29,0,0,0-.94.38,1.38,1.38,0,0,0,0,1.9,1.34,1.34,0,0,0,2.08-.27l.55.32a1.89,1.89,0,0,1-1.69,1A2,2,0,0,1,67.92,77.89Z"/><path class="cls-2" d="M74.72,74.6h.66v3.75h-.66v-.64a1.58,1.58,0,0,1-1.41.74A1.81,1.81,0,0,1,72,77.88a2,2,0,0,1-.55-1.41A1.92,1.92,0,0,1,72,75.08a1.82,1.82,0,0,1,1.35-.58,1.58,1.58,0,0,1,1.41.74Zm-.38,2.84a1.32,1.32,0,0,0,.38-1,1.34,1.34,0,0,0-2.28-1,1.31,1.31,0,0,0-.38,1,1.36,1.36,0,0,0,.38,1,1.31,1.31,0,0,0,1,.38A1.3,1.3,0,0,0,74.34,77.44Z"/><path class="cls-2" d="M76.37,78.35V72.87H77v5.48Z"/><path class="cls-2" d="M78.37,77.89a2,2,0,0,1-.56-1.42,1.93,1.93,0,0,1,2-2,1.78,1.78,0,0,1,1.65,1l-.54.32a1.2,1.2,0,0,0-1.11-.66,1.3,1.3,0,0,0-1,.38,1.38,1.38,0,0,0,0,1.9,1.26,1.26,0,0,0,1,.38,1.24,1.24,0,0,0,1.13-.65l.55.32a1.89,1.89,0,0,1-1.68,1A2,2,0,0,1,78.37,77.89Z"/><path class="cls-2" d="M82,73.48a.44.44,0,0,1,.44-.44.44.44,0,0,1,.44.44.44.44,0,0,1-.44.43A.43.43,0,0,1,82,73.48Zm.11,4.87V74.6h.65v3.75Z"/><path class="cls-2" d="M85.7,73.63c-.66,0-1,.23-1,.86v.11h1v.63h-1v3.12h-.65V75.23h-.6V74.6h.6v-.11A1.36,1.36,0,0,1,85.7,73Z"/><path class="cls-2" d="M86.45,76.78a1.29,1.29,0,0,0,1.36,1,1.16,1.16,0,0,0,1.08-.55l.56.32a1.86,1.86,0,0,1-1.65.85,2,2,0,0,1-1.46-.56,2,2,0,0,1,1.41-3.39,1.74,1.74,0,0,1,1.35.59,2,2,0,0,1,.52,1.39c0,.1,0,.2,0,.3Zm0-.58H89a1.18,1.18,0,0,0-1.21-1.08A1.25,1.25,0,0,0,86.45,76.2Z"/><path class="cls-2" d="M91,75.23a1.16,1.16,0,0,1,1.17-.7v.68a1.18,1.18,0,0,0-.83.26,1.08,1.08,0,0,0-.34.89v2h-.66V74.6H91Z"/><path class="cls-2" d="M94.4,78.45A2,2,0,0,1,93,77.88a2,2,0,0,1,0-2.81,2,2,0,0,1,1.41-.57,2,2,0,1,1,0,4Zm.94-1a1.35,1.35,0,1,0-.94.38A1.28,1.28,0,0,0,95.34,77.43Z"/><path class="cls-2" d="M97.15,78.35V72.87h.65v5.48Z"/><path class="cls-2" d="M98.5,79.1a7.32,7.32,0,0,0,0-6.75h.65a7.32,7.32,0,0,1,0,6.75Z"/><path class="cls-2" d="M102.49,78.35v-.77l1.79-1.85a1.77,1.77,0,0,0,.61-1,.65.65,0,0,0-.69-.68.92.92,0,0,0-.88.61l-.87-.51A1.86,1.86,0,0,1,104.19,73a1.79,1.79,0,0,1,1.22.45,1.51,1.51,0,0,1,.51,1.2,2.41,2.41,0,0,1-.86,1.68l-1,1h2v1Z"/><path class="cls-2" d="M108.28,75a1.86,1.86,0,0,1,1.28.46,1.79,1.79,0,0,1,0,2.53,2,2,0,0,1-1.33.46,1.86,1.86,0,0,1-1.84-1.13l.89-.52a.88.88,0,0,0,1,.63c.53,0,.84-.27.84-.71a.71.71,0,0,0-.81-.71h-1.59l.21-2.92h3v1h-2l-.07,1Z"/><path class="cls-2" d="M116.3,76v2.31h-1V76.11c0-.45-.24-.72-.63-.72s-.7.3-.7.85v2.11h-1V76.11c0-.45-.23-.72-.63-.72s-.71.3-.71.85v2.11h-1V74.6h1V75a1.17,1.17,0,0,1,1-.51,1.12,1.12,0,0,1,1,.54,1.26,1.26,0,0,1,1.12-.54A1.39,1.39,0,0,1,116.3,76Z"/><path class="cls-2" d="M117.5,77.89a2,2,0,0,1,1.42-3.4,1.87,1.87,0,0,1,1.68,1l-.83.49a.93.93,0,0,0-.86-.5,1,1,0,0,0-1,1,1,1,0,0,0,.29.74,1,1,0,0,0,.72.29.92.92,0,0,0,.86-.5l.84.48a2,2,0,0,1-3.11.41Z"/><path class="cls-2" d="M123.94,74.6h1v3.57a1.62,1.62,0,0,1-.58,1.33,2.11,2.11,0,0,1-1.38.46,1.91,1.91,0,0,1-1.78-.92l.82-.47a1,1,0,0,0,1,.52.87.87,0,0,0,1-.92v-.4a1.4,1.4,0,0,1-1.2.57,1.8,1.8,0,0,1-1.34-.56,1.93,1.93,0,0,1-.53-1.37,1.86,1.86,0,0,1,.54-1.35,1.75,1.75,0,0,1,1.33-.57,1.4,1.4,0,0,1,1.2.57Zm-.3,1.09a1,1,0,0,0-.75-.3,1,1,0,0,0-.76.3,1,1,0,0,0-.29.72,1.05,1.05,0,0,0,2.1,0A.94.94,0,0,0,123.64,75.69Z"/><path class="cls-2" d="M7,92.71h2.6v.66H6.12v-.61l2.54-4H6.19v-.66h3.3v.6Z"/><path class="cls-2" d="M10.15,88.5a.45.45,0,0,1,.45-.45.44.44,0,0,1,.43.45.43.43,0,0,1-.43.43A.44.44,0,0,1,10.15,88.5Zm.12,4.87V89.61h.65v3.76Z"/><path class="cls-2" d="M15.24,91.06v2.31h-.65V91.1a.87.87,0,0,0-.93-1c-.65,0-1.09.4-1.09,1.24v2h-.65V89.61h.65v.55a1.32,1.32,0,0,1,1.22-.64A1.4,1.4,0,0,1,15.24,91.06Z"/><path class="cls-2" d="M16.51,92.9a1.92,1.92,0,0,1-.57-1.41,1.88,1.88,0,0,1,.57-1.4,1.85,1.85,0,0,1,1.41-.57,1.81,1.81,0,0,1,1.66,1l-.55.31a1.21,1.21,0,0,0-1.11-.65,1.27,1.27,0,0,0-1,.38,1.29,1.29,0,0,0-.37.95,1.28,1.28,0,0,0,1.32,1.33,1.26,1.26,0,0,0,1.13-.65l.56.32a1.92,1.92,0,0,1-1.69,1A1.88,1.88,0,0,1,16.51,92.9Z"/><path class="cls-2" d="M22.9,94.12a7.34,7.34,0,0,1,0-6.76h.66a7.28,7.28,0,0,0,0,6.76Z"/><path class="cls-2" d="M27.35,89.61H28v3.76h-.65v-.65a1.59,1.59,0,0,1-1.42.75,1.75,1.75,0,0,1-1.34-.58,2,2,0,0,1,0-2.8,1.78,1.78,0,0,1,1.34-.57,1.58,1.58,0,0,1,1.42.74ZM27,92.45a1.34,1.34,0,0,0,.38-1A1.32,1.32,0,0,0,26,90.15a1.33,1.33,0,0,0-1.33,1.34,1.3,1.3,0,0,0,.39,1,1.25,1.25,0,0,0,.94.38A1.3,1.3,0,0,0,27,92.45Z"/><path class="cls-2" d="M30.29,91.19c.59.13,1.37.35,1.36,1.15a1,1,0,0,1-.4.82,1.59,1.59,0,0,1-1,.31,1.54,1.54,0,0,1-1.5-.88l.57-.33a.92.92,0,0,0,.93.59c.42,0,.74-.16.74-.51s-.33-.46-.74-.56c-.6-.15-1.36-.35-1.36-1.14a1,1,0,0,1,.37-.81,1.59,1.59,0,0,1,2.31.47l-.55.31a.79.79,0,0,0-.8-.49c-.37,0-.67.19-.67.51S29.88,91.08,30.29,91.19Z"/><path class="cls-2" d="M34.92,92.71h2.61v.66H34.1v-.61l2.54-4H34.17v-.66h3.3v.6Z"/><path class="cls-2" d="M38.13,88.5a.44.44,0,1,1,.88,0,.44.44,0,0,1-.88,0Zm.11,4.87V89.61h.66v3.76Z"/><path class="cls-2" d="M43.22,91.06v2.31h-.65V91.1a.87.87,0,0,0-.93-1c-.66,0-1.09.4-1.09,1.24v2h-.66V89.61h.66v.55a1.32,1.32,0,0,1,1.21-.64A1.4,1.4,0,0,1,43.22,91.06Z"/><path class="cls-2" d="M44.48,92.9a2,2,0,0,1-.56-1.41,1.91,1.91,0,0,1,.56-1.4,1.88,1.88,0,0,1,1.41-.57,1.79,1.79,0,0,1,1.66,1l-.55.31a1.19,1.19,0,0,0-1.11-.65,1.25,1.25,0,0,0-.94.38,1.3,1.3,0,0,0-.38.95,1.31,1.31,0,0,0,.38,1,1.29,1.29,0,0,0,.94.38A1.27,1.27,0,0,0,47,92.17l.55.32a2,2,0,0,1-3.1.41Z"/><path class="cls-2" d="M50.68,92.68a2.72,2.72,0,0,1,2-4.66,2.6,2.6,0,0,1,2.27,1.27l-.61.35a1.86,1.86,0,0,0-1.66-1,2,2,0,1,0,0,4.09,1.86,1.86,0,0,0,1.66-.94l.61.34a2.5,2.5,0,0,1-.94.94,2.79,2.79,0,0,1-3.3-.44Z"/><path class="cls-2" d="M55.55,88.5a.45.45,0,0,1,.44-.45.45.45,0,0,1,.44.45.44.44,0,0,1-.44.43A.43.43,0,0,1,55.55,88.5Zm.11,4.87V89.61h.65v3.76Z"/><path class="cls-2" d="M59.36,90.24h-1v2c0,.58.33.53,1,.5v.59c-1.15.15-1.66-.16-1.66-1.09v-2H57v-.63h.74v-.85l.66-.2v1h1Z"/><path class="cls-2" d="M60.8,90.24A1.19,1.19,0,0,1,62,89.55v.68a1.14,1.14,0,0,0-.83.26,1.07,1.07,0,0,0-.35.89v2h-.65V89.61h.65Z"/><path class="cls-2" d="M65.52,89.61h.65v3.76h-.65v-.65a1.59,1.59,0,0,1-1.42.75,1.77,1.77,0,0,1-1.34-.58,2,2,0,0,1,0-2.8,1.79,1.79,0,0,1,1.34-.57,1.58,1.58,0,0,1,1.42.74Zm-.38,2.84a1.34,1.34,0,0,0,.38-1,1.32,1.32,0,0,0-1.34-1.34,1.33,1.33,0,0,0-1.33,1.34,1.3,1.3,0,0,0,.39,1,1.25,1.25,0,0,0,.94.38A1.28,1.28,0,0,0,65.14,92.45Z"/><path class="cls-2" d="M69.21,90.24h-1v2c0,.58.33.53,1,.5v.59c-1.14.15-1.66-.16-1.66-1.09v-2h-.74v-.63h.74v-.85l.66-.2v1h1Z"/><path class="cls-2" d="M70.25,91.79a1.29,1.29,0,0,0,1.36,1.06,1.18,1.18,0,0,0,1.08-.55l.56.32a1.86,1.86,0,0,1-1.66.85,2,2,0,0,1-1.45-.56,2,2,0,0,1-.56-1.42,1.92,1.92,0,0,1,.55-1.41,1.88,1.88,0,0,1,1.42-.56,1.69,1.69,0,0,1,1.34.58,2,2,0,0,1,.53,1.4,2.83,2.83,0,0,1,0,.29Zm0-.57h2.51a1.2,1.2,0,0,0-1.21-1.09A1.25,1.25,0,0,0,70.25,91.22Z"/><path class="cls-2" d="M73.86,94.12a7.28,7.28,0,0,0,0-6.76h.65a7.28,7.28,0,0,1,0,6.76Z"/><path class="cls-2" d="M79.12,88.11H80v5.26H79V89.21l-1,.28-.25-.89Z"/><path class="cls-2" d="M82,88.11h.9v5.26h-1V89.21l-1,.28-.26-.89Z"/><path class="cls-2" d="M89.48,91.05v2.32h-1V91.12c0-.45-.23-.71-.63-.71s-.7.3-.7.85v2.11h-1V91.12c0-.45-.23-.71-.63-.71s-.7.3-.7.85v2.11h-1V89.61h1V90a1.15,1.15,0,0,1,1-.5,1.11,1.11,0,0,1,1,.54,1.27,1.27,0,0,1,1.12-.54A1.39,1.39,0,0,1,89.48,91.05Z"/><path class="cls-2" d="M93.18,89.61h.95v3.58a1.63,1.63,0,0,1-.58,1.33,2.18,2.18,0,0,1-1.38.45,1.91,1.91,0,0,1-1.78-.91l.82-.47a1,1,0,0,0,1,.52.87.87,0,0,0,1-.92v-.41a1.41,1.41,0,0,1-1.2.57,1.83,1.83,0,0,1-1.34-.55,2,2,0,0,1-.53-1.37,1.9,1.9,0,0,1,.54-1.36A1.78,1.78,0,0,1,92,89.51a1.41,1.41,0,0,1,1.2.57Zm-.3,1.09a1,1,0,0,0-.75-.29,1.06,1.06,0,0,0-.76.29,1,1,0,1,0,1.81.73A1,1,0,0,0,92.88,90.7Z"/><path class="cls-2" d="M7.09,107.72H9.53v.66H6.39v-5.25h3.1v.66H7.09v1.61H9.31v.66H7.09Z"/><path class="cls-2" d="M10.3,108.38V102.9H11v5.48Z"/><path class="cls-2" d="M15.06,103.13h.66v5.25h-.66v-.64a1.58,1.58,0,0,1-1.41.74,1.81,1.81,0,0,1-1.35-.57,2.06,2.06,0,0,1,0-2.8,1.82,1.82,0,0,1,1.35-.58,1.57,1.57,0,0,1,1.41.75Zm-.38,4.34a1.3,1.3,0,0,0,.38-1,1.28,1.28,0,0,0-.38-1,1.27,1.27,0,0,0-.95-.39,1.28,1.28,0,0,0-1,.39,1.32,1.32,0,0,0-.38,1,1.34,1.34,0,0,0,.38,1,1.31,1.31,0,0,0,1,.38A1.3,1.3,0,0,0,14.68,107.47Z"/><path class="cls-2" d="M17.17,106.81a1.27,1.27,0,0,0,1.36,1.06,1.18,1.18,0,0,0,1.08-.55l.55.31a1.82,1.82,0,0,1-1.65.85,2,2,0,0,1-1.46-.55,2,2,0,0,1-.55-1.42,1.91,1.91,0,0,1,.55-1.41,1.88,1.88,0,0,1,1.42-.57,1.73,1.73,0,0,1,1.34.59,2,2,0,0,1,.53,1.39,1.53,1.53,0,0,1,0,.3Zm0-.57h2.5a1.18,1.18,0,0,0-1.2-1.09A1.25,1.25,0,0,0,17.17,106.24Z"/><path class="cls-2" d="M21.74,105.26a1.19,1.19,0,0,1,1.17-.7v.69a1.12,1.12,0,0,0-.82.25,1.05,1.05,0,0,0-.35.89v2h-.65v-3.75h.65Z"/><path class="cls-2" d="M27,105.11a2,2,0,0,1,0,2.8,1.78,1.78,0,0,1-1.34.57,1.6,1.6,0,0,1-1.42-.74v.64h-.65v-5.25h.65v2.15a1.59,1.59,0,0,1,1.42-.75A1.79,1.79,0,0,1,27,105.11Zm-.48,2.36a1.3,1.3,0,0,0,.39-1,1.29,1.29,0,0,0-.39-1,1.34,1.34,0,0,0-1.89,0,1.29,1.29,0,0,0-.39,1,1.32,1.32,0,0,0,1.34,1.34A1.29,1.29,0,0,0,26.48,107.47Z"/><path class="cls-2" d="M28.76,106.81a1.29,1.29,0,0,0,1.36,1.06,1.18,1.18,0,0,0,1.08-.55l.56.31a1.84,1.84,0,0,1-1.66.85,2,2,0,0,1-1.45-.55,2,2,0,0,1-.56-1.42,1.92,1.92,0,0,1,2-2,1.7,1.7,0,0,1,1.34.59,2,2,0,0,1,.53,1.39c0,.1,0,.2,0,.3Zm0-.57h2.51a1.19,1.19,0,0,0-1.21-1.09A1.25,1.25,0,0,0,28.76,106.24Z"/><path class="cls-2" d="M33.33,105.26a1.19,1.19,0,0,1,1.17-.7v.69a1.12,1.12,0,0,0-.82.25,1.05,1.05,0,0,0-.35.89v2h-.65v-3.75h.65Z"/><path class="cls-2" d="M35.79,105.26a1.2,1.2,0,0,1,1.18-.7v.69a1.13,1.13,0,0,0-.83.25,1.08,1.08,0,0,0-.35.89v2h-.65v-3.75h.65Z"/><path class="cls-2" d="M40.31,104.63H41l-1.54,4a1.67,1.67,0,0,1-1.66,1.27v-.61c.45,0,.79-.22,1-.77l.07-.14-1.64-3.74H38l1.28,2.94Z"/><path class="cls-2" d="M46.52,103.79H44.2v1.7h2.23v.66H44.2v2.23h-.7v-5.25h3Z"/><path class="cls-2" d="M48,105.26a1.19,1.19,0,0,1,1.17-.7v.69a1.16,1.16,0,0,0-.83.25,1.08,1.08,0,0,0-.34.89v2H47.3v-3.75H48Z"/><path class="cls-2" d="M52.36,104.63H53v3.75h-.65v-.54a1.33,1.33,0,0,1-1.22.64,1.41,1.41,0,0,1-1.46-1.55v-2.3h.66v2.27a.87.87,0,0,0,.93,1c.65,0,1.09-.4,1.09-1.24Z"/><path class="cls-2" d="M53.89,103.51a.44.44,0,0,1,.44-.44.44.44,0,1,1,0,.88A.44.44,0,0,1,53.89,103.51Zm.11,4.87v-3.75h.66v3.75Z"/><path class="cls-2" d="M57.7,105.26h-1v2c0,.57.33.53,1,.5v.58c-1.15.15-1.66-.15-1.66-1.08v-2H55.3v-.63H56v-.86l.66-.19v1h1Z"/><path class="cls-2" d="M61.13,107.72h2.44v.66H60.44v-5.25h3.1v.66H61.13v1.61h2.22v.66H61.13Z"/><path class="cls-2" d="M67.61,108.38h-.77l-1-1.41-1.06,1.41H64l1.44-1.93-1.36-1.82h.77l1,1.31,1-1.31h.76l-1.35,1.82Z"/><path class="cls-2" d="M70.26,105.26h-1v2c0,.57.33.53,1,.5v.58c-1.14.15-1.65-.15-1.65-1.08v-2h-.75v-.63h.75v-.86l.65-.19v1h1Z"/><path class="cls-2" d="M71.71,105.26a1.18,1.18,0,0,1,1.17-.7v.69a1.13,1.13,0,0,0-.83.25,1.08,1.08,0,0,0-.34.89v2h-.66v-3.75h.66Z"/><path class="cls-2" d="M76.42,104.63h.65v3.75h-.65v-.64a1.59,1.59,0,0,1-1.42.74,1.81,1.81,0,0,1-1.34-.57,2,2,0,0,1,0-2.8,1.82,1.82,0,0,1,1.34-.58,1.57,1.57,0,0,1,1.42.75ZM76,107.47a1.34,1.34,0,0,0,.38-1,1.32,1.32,0,0,0-.38-1,1.29,1.29,0,0,0-1-.39,1.26,1.26,0,0,0-.94.39,1.28,1.28,0,0,0-.38,1,1.3,1.3,0,0,0,1.32,1.34A1.32,1.32,0,0,0,76,107.47Z"/><path class="cls-2" d="M78.42,107.92a2,2,0,0,1,1.41-3.39,1.81,1.81,0,0,1,1.66,1l-.55.31a1.2,1.2,0,0,0-1.11-.66,1.31,1.31,0,0,0-1,.38,1.35,1.35,0,0,0-.37,1,1.32,1.32,0,0,0,.37.94,1.28,1.28,0,0,0,1,.39,1.25,1.25,0,0,0,1.13-.66l.56.33a1.9,1.9,0,0,1-1.69,1A1.93,1.93,0,0,1,78.42,107.92Z"/><path class="cls-2" d="M84.21,105.26h-1v2c0,.57.33.53,1,.5v.58c-1.14.15-1.65-.15-1.65-1.08v-2h-.75v-.63h.75v-.86l.65-.19v1h1Z"/><path class="cls-2" d="M89,105.26a1.61,1.61,0,0,1,.66,2.77,2,2,0,0,1-1.33.46,1.83,1.83,0,0,1-1.8-1.11l.88-.51a.87.87,0,0,0,.92.61c.53,0,.84-.27.84-.72s-.31-.71-.84-.71h-.23l-.39-.6,1-1.35h-2v-1H90V104Z"/><path class="cls-2" d="M90.57,103.13H94V104l-1.78,4.37h-1.1l1.73-4.26H90.57Z"/><path class="cls-2" d="M94.67,107.75a3.37,3.37,0,0,1-.55-2,3.33,3.33,0,0,1,.55-2,1.85,1.85,0,0,1,1.55-.75,1.82,1.82,0,0,1,1.55.75,3.26,3.26,0,0,1,.55,2,3.3,3.3,0,0,1-.55,2,1.84,1.84,0,0,1-1.55.74A1.87,1.87,0,0,1,94.67,107.75ZM96.22,104c-.7,0-1.07.61-1.07,1.73s.37,1.72,1.07,1.72,1.07-.61,1.07-1.72S96.92,104,96.22,104Z"/><path class="cls-2" d="M104.6,106.07v2.31h-1v-2.24c0-.45-.23-.71-.63-.71s-.7.3-.7.84v2.11h-1v-2.24c0-.45-.23-.71-.63-.71s-.7.3-.7.84v2.11H99v-3.75h1v.4a1.15,1.15,0,0,1,1-.5,1.11,1.11,0,0,1,1,.54,1.27,1.27,0,0,1,1.12-.54A1.39,1.39,0,0,1,104.6,106.07Z"/><path class="cls-2" d="M108.3,104.63h1v3.57a1.62,1.62,0,0,1-.58,1.33,2.11,2.11,0,0,1-1.38.46,1.89,1.89,0,0,1-1.78-.92l.82-.47a1,1,0,0,0,1,.53.87.87,0,0,0,1-.93v-.4a1.4,1.4,0,0,1-1.2.57,1.8,1.8,0,0,1-1.34-.56,1.92,1.92,0,0,1-.53-1.36,1.87,1.87,0,0,1,.54-1.36,1.75,1.75,0,0,1,1.33-.56,1.38,1.38,0,0,1,1.2.57Zm-.3,1.09a1,1,0,0,0-.75-.29,1,1,0,0,0-.76.29,1,1,0,0,0-.29.73,1.05,1.05,0,0,0,2.1,0A1,1,0,0,0,108,105.72Z"/><path class="cls-2" d="M11.46,120.8v.31a2.26,2.26,0,0,1-.71,1.71,2.58,2.58,0,0,1-1.86.68,2.73,2.73,0,1,1,0-5.45,2.68,2.68,0,0,1,1.34.35,2.35,2.35,0,0,1,.93.92l-.6.35a1.88,1.88,0,0,0-1.68-1,2,2,0,0,0-2,2,2,2,0,0,0,.57,1.46,2.05,2.05,0,0,0,1.51.58,1.73,1.73,0,0,0,1.87-1.38H8.83v-.63Z"/><path class="cls-2" d="M15.35,119.65H16v3.75h-.65v-.64a1.6,1.6,0,0,1-1.42.74,1.79,1.79,0,0,1-1.34-.57,2,2,0,0,1-.56-1.41,1.93,1.93,0,0,1,.56-1.39,1.77,1.77,0,0,1,1.34-.58,1.6,1.6,0,0,1,1.42.74ZM15,122.48a1.39,1.39,0,0,0,0-1.91,1.29,1.29,0,0,0-1-.39,1.26,1.26,0,0,0-.94.39,1.36,1.36,0,0,0,0,1.91,1.26,1.26,0,0,0,.94.39A1.29,1.29,0,0,0,15,122.48Z"/><path class="cls-2" d="M17.65,120.28a1.18,1.18,0,0,1,1.17-.7v.68a1.21,1.21,0,0,0-.83.26,1.08,1.08,0,0,0-.34.89v2H17v-3.75h.66Z"/><path class="cls-2" d="M19.46,123.4v-5.48h.65v5.48Z"/><path class="cls-2" d="M21,118.53a.44.44,0,1,1,.87,0,.44.44,0,0,1-.87,0Zm.11,4.87v-3.75h.65v3.75Z"/><path class="cls-2" d="M23.11,122.93a2,2,0,0,1,1.41-3.38,1.79,1.79,0,0,1,1.66,1l-.54.32a1.2,1.2,0,0,0-1.12-.66,1.25,1.25,0,0,0-.94.38,1.38,1.38,0,0,0,0,1.9,1.29,1.29,0,0,0,.94.38,1.25,1.25,0,0,0,1.14-.65l.55.32a1.89,1.89,0,0,1-1.69,1A1.92,1.92,0,0,1,23.11,122.93Z"/><path class="cls-2" d="M32.6,121.91a1.43,1.43,0,0,1-.44,1.06,1.46,1.46,0,0,1-1.08.43H28.81v-5.25h2.1a1.43,1.43,0,0,1,1.05.41,1.38,1.38,0,0,1,.43,1,1.27,1.27,0,0,1-.57,1.1A1.32,1.32,0,0,1,32.6,121.91Zm-3.09-3.11v1.61h1.4a.79.79,0,0,0,.79-.81.76.76,0,0,0-.24-.56.72.72,0,0,0-.55-.24Zm1.57,4a.83.83,0,0,0,.83-.86.85.85,0,0,0-.24-.6.82.82,0,0,0-.59-.25H29.51v1.71Z"/><path class="cls-2" d="M36,119.65h.66v3.75H36v-.54a1.31,1.31,0,0,1-1.21.64A1.41,1.41,0,0,1,33.36,122v-2.3H34v2.26a.88.88,0,0,0,.94,1c.65,0,1.08-.4,1.08-1.24Z"/><path class="cls-2" d="M37.68,123.4v-5.48h.65v5.48Z"/><path class="cls-2" d="M42.75,120.13a2,2,0,0,1,.55,1.39,2,2,0,0,1-.55,1.41,1.81,1.81,0,0,1-1.35.57,1.61,1.61,0,0,1-1.42-.74v.64h-.65v-5.25H40v2.14a1.61,1.61,0,0,1,1.42-.74A1.79,1.79,0,0,1,42.75,120.13Zm-.48,2.35a1.39,1.39,0,0,0,0-1.91,1.28,1.28,0,0,0-1-.39,1.27,1.27,0,0,0-1,.39,1.36,1.36,0,0,0,0,1.91,1.27,1.27,0,0,0,1,.39A1.28,1.28,0,0,0,42.27,122.48Z"/><path class="cls-2" d="M46.73,122.74h2.44v.66H46v-5.25h3.1v.66h-2.4v1.61h2.21v.65H46.73Z"/><path class="cls-2" d="M53.2,123.4h-.77l-1-1.42-1.06,1.42h-.76L51,121.47l-1.36-1.82h.77l1,1.3,1-1.3h.77l-1.36,1.81Z"/><path class="cls-2" d="M55.85,120.28h-1v2c0,.58.33.54,1,.5v.59c-1.14.15-1.65-.16-1.65-1.09v-2h-.75v-.63h.75v-.86l.65-.19v1.05h1Z"/><path class="cls-2" d="M57.3,120.28a1.18,1.18,0,0,1,1.17-.7v.68a1.21,1.21,0,0,0-.83.26,1.08,1.08,0,0,0-.34.89v2h-.66v-3.75h.66Z"/><path class="cls-2" d="M62,119.65h.66v3.75H62v-.64a1.59,1.59,0,0,1-1.42.74,1.81,1.81,0,0,1-1.34-.57,2,2,0,0,1-.56-1.41,1.93,1.93,0,0,1,.56-1.39,1.78,1.78,0,0,1,1.34-.58,1.59,1.59,0,0,1,1.42.74Zm-.38,2.83a1.35,1.35,0,0,0-1.9-1.91,1.39,1.39,0,0,0,0,1.91,1.35,1.35,0,0,0,1.9,0Z"/><path class="cls-2" d="M64,122.93a2,2,0,0,1,1.41-3.38,1.8,1.8,0,0,1,1.66,1l-.55.32a1.19,1.19,0,0,0-1.11-.66,1.25,1.25,0,0,0-.94.38,1.38,1.38,0,0,0,0,1.9,1.29,1.29,0,0,0,.94.38,1.23,1.23,0,0,0,1.13-.65l.56.32a1.89,1.89,0,0,1-1.69,1A1.92,1.92,0,0,1,64,122.93Z"/><path class="cls-2" d="M69.8,120.28h-1v2c0,.58.33.54,1,.5v.59c-1.14.15-1.65-.16-1.65-1.09v-2H67.4v-.63h.75v-.86l.65-.19v1.05h1Z"/><path class="cls-2" d="M72.18,123.4v-.77L74,120.78a1.74,1.74,0,0,0,.6-1,.65.65,0,0,0-.68-.68.92.92,0,0,0-.88.61l-.87-.51A1.86,1.86,0,0,1,73.88,118a1.79,1.79,0,0,1,1.22.45,1.51,1.51,0,0,1,.51,1.2,2.41,2.41,0,0,1-.86,1.68l-1,1h2v1Z"/><path class="cls-2" d="M76.71,122.76a3.8,3.8,0,0,1,0-4,2,2,0,0,1,3.09,0,3.8,3.8,0,0,1,0,4,2,2,0,0,1-3.09,0Zm1.54-3.71c-.7,0-1.06.6-1.06,1.72s.36,1.72,1.06,1.72,1.08-.61,1.08-1.72S79,119.05,78.25,119.05Z"/><path class="cls-2" d="M81.44,122.76a3.8,3.8,0,0,1,0-4,2,2,0,0,1,3.09,0,3.8,3.8,0,0,1,0,4,2,2,0,0,1-3.09,0ZM83,119.05c-.7,0-1.06.6-1.06,1.72s.36,1.72,1.06,1.72,1.08-.61,1.08-1.72S83.68,119.05,83,119.05Z"/><path class="cls-2" d="M91.36,121.09v2.31h-1v-2.24c0-.45-.23-.72-.63-.72s-.69.3-.69.85v2.11h-1v-2.24c0-.45-.24-.72-.63-.72s-.71.3-.71.85v2.11h-1v-3.75h1v.4a1.16,1.16,0,0,1,1-.51,1.13,1.13,0,0,1,1,.54,1.25,1.25,0,0,1,1.11-.54A1.39,1.39,0,0,1,91.36,121.09Z"/><path class="cls-2" d="M95.06,119.65h1v3.57a1.62,1.62,0,0,1-.58,1.33,2.11,2.11,0,0,1-1.38.46,1.91,1.91,0,0,1-1.78-.92l.83-.47a1,1,0,0,0,1,.52.87.87,0,0,0,1-.92v-.41a1.38,1.38,0,0,1-1.2.58,1.78,1.78,0,0,1-1.33-.56,2,2,0,0,1,0-2.73,1.8,1.8,0,0,1,1.33-.56,1.4,1.4,0,0,1,1.2.57Zm-.3,1.09a1,1,0,0,0-.75-.3,1.06,1.06,0,0,0-.76.3,1,1,0,0,0-.29.72,1.05,1.05,0,0,0,2.1,0A.9.9,0,0,0,94.76,120.74Z"/><path class="cls-2" d="M7.09,137.76H9.53v.66H6.39v-5.26h3.1v.66H7.09v1.62H9.31v.65H7.09Z"/><path class="cls-2" d="M10.58,138a1.92,1.92,0,0,1-.57-1.41,1.88,1.88,0,0,1,.57-1.4,1.85,1.85,0,0,1,1.41-.57,1.81,1.81,0,0,1,1.66,1l-.55.31A1.22,1.22,0,0,0,12,135.2a1.3,1.3,0,0,0-1.32,1.34A1.28,1.28,0,0,0,12,137.87a1.26,1.26,0,0,0,1.13-.65l.56.32a1.93,1.93,0,0,1-1.69,1A1.88,1.88,0,0,1,10.58,138Z"/><path class="cls-2" d="M17.65,136.11v2.31H17v-2.27a.87.87,0,0,0-.93-1c-.65,0-1.09.4-1.09,1.24v2h-.65v-5.26H15v2a1.35,1.35,0,0,1,1.22-.63A1.4,1.4,0,0,1,17.65,136.11Z"/><path class="cls-2" d="M18.44,133.55a.45.45,0,0,1,.45-.45.44.44,0,0,1,.43.45.43.43,0,0,1-.43.43A.44.44,0,0,1,18.44,133.55Zm.12,4.87v-3.76h.65v3.76Z"/><path class="cls-2" d="M23.53,136.11v2.31h-.65v-2.27a.87.87,0,0,0-.93-1c-.65,0-1.09.4-1.09,1.24v2h-.65v-3.76h.65v.54a1.33,1.33,0,0,1,1.22-.63A1.4,1.4,0,0,1,23.53,136.11Z"/><path class="cls-2" d="M27.55,134.66h.65v3.76h-.65v-.65a1.57,1.57,0,0,1-1.42.74,1.77,1.77,0,0,1-1.34-.57,2,2,0,0,1,0-2.8,1.81,1.81,0,0,1,1.34-.57,1.57,1.57,0,0,1,1.42.74Zm-.38,2.84a1.34,1.34,0,0,0,.38-1,1.3,1.3,0,0,0-.38-.95,1.25,1.25,0,0,0-1-.39,1.22,1.22,0,0,0-.94.39,1.26,1.26,0,0,0-.38.95,1.3,1.3,0,0,0,.38,1,1.25,1.25,0,0,0,.94.38A1.28,1.28,0,0,0,27.17,137.5Z"/><path class="cls-2" d="M29.55,138a1.91,1.91,0,0,1-.56-1.41,1.93,1.93,0,0,1,2-2,1.8,1.8,0,0,1,1.66,1l-.55.31A1.22,1.22,0,0,0,31,135.2a1.28,1.28,0,0,0-.95.39,1.33,1.33,0,0,0-.37.95,1.35,1.35,0,0,0,.37,1,1.31,1.31,0,0,0,.95.38,1.26,1.26,0,0,0,1.13-.65l.56.32a2,2,0,0,1-3.1.41Z"/><path class="cls-2" d="M33.7,136.84a1.29,1.29,0,0,0,1.36,1.06,1.18,1.18,0,0,0,1.08-.55l.56.32a1.85,1.85,0,0,1-1.66.84,1.9,1.9,0,0,1-2-2,1.92,1.92,0,0,1,.55-1.41,1.88,1.88,0,0,1,1.42-.56,1.69,1.69,0,0,1,1.34.58,2,2,0,0,1,.53,1.4,2.83,2.83,0,0,1,0,.29Zm0-.57h2.51A1.19,1.19,0,0,0,35,135.18,1.25,1.25,0,0,0,33.7,136.27Z"/><path class="cls-2" d="M40.72,134.66h.65v3.76h-.65v-.65a1.58,1.58,0,0,1-1.42.74,1.77,1.77,0,0,1-1.34-.57,2,2,0,0,1,0-2.8,1.81,1.81,0,0,1,1.34-.57,1.58,1.58,0,0,1,1.42.74Zm-.38,2.84a1.34,1.34,0,0,0,.38-1,1.3,1.3,0,0,0-.38-.95,1.25,1.25,0,0,0-1-.39,1.22,1.22,0,0,0-.94.39,1.26,1.26,0,0,0-.38.95,1.3,1.3,0,0,0,.38,1,1.25,1.25,0,0,0,.94.38A1.28,1.28,0,0,0,40.34,137.5Z"/><path class="cls-2" d="M46.22,133.16a1.68,1.68,0,0,1,1.21.49,1.69,1.69,0,0,1-1.21,2.89H45v1.88h-.7v-5.26Zm0,2.73a1,1,0,0,0,.72-.3,1.08,1.08,0,0,0,.28-.74,1,1,0,0,0-1-1H45v2.07Z"/><path class="cls-2" d="M51.26,134.66h.66v3.76h-.66v-.54a1.33,1.33,0,0,1-1.21.63A1.4,1.4,0,0,1,48.59,137v-2.31h.65v2.27a.87.87,0,0,0,.93,1c.66,0,1.09-.4,1.09-1.24Z"/><path class="cls-2" d="M53.56,135.29a1.19,1.19,0,0,1,1.17-.69v.68a1.17,1.17,0,0,0-.82.25,1.06,1.06,0,0,0-.35.9v2h-.65v-3.76h.65Z"/><path class="cls-2" d="M58.78,135.14a2,2,0,0,1,0,2.8,1.74,1.74,0,0,1-1.34.57,1.59,1.59,0,0,1-1.42-.74v2.15h-.65v-5.26H56v.65a1.59,1.59,0,0,1,1.42-.74A1.78,1.78,0,0,1,58.78,135.14Zm-.48,2.36a1.3,1.3,0,0,0,.39-1,1.27,1.27,0,0,0-.39-.95,1.34,1.34,0,0,0-1.89,0,1.27,1.27,0,0,0-.39.95,1.3,1.3,0,0,0,.39,1,1.37,1.37,0,0,0,1.89,0Z"/><path class="cls-2" d="M62.71,134.66h.66v3.76h-.66v-.54a1.33,1.33,0,0,1-1.21.63A1.4,1.4,0,0,1,60,137v-2.31h.65v2.27a.87.87,0,0,0,.93,1c.66,0,1.09-.4,1.09-1.24Z"/><path class="cls-2" d="M65,135.29a1.19,1.19,0,0,1,1.17-.69v.68a1.17,1.17,0,0,0-.82.25,1.06,1.06,0,0,0-.35.9v2h-.65v-3.76H65Z"/><path class="cls-2" d="M67.07,136.84a1.29,1.29,0,0,0,1.36,1.06,1.16,1.16,0,0,0,1.08-.55l.56.32a1.85,1.85,0,0,1-1.65.84A2,2,0,0,1,67,138a2.11,2.11,0,0,1,0-2.83,1.9,1.9,0,0,1,1.42-.56,1.73,1.73,0,0,1,1.35.58,2,2,0,0,1,.52,1.4,2.83,2.83,0,0,1,0,.29Zm0-.57h2.51a1.19,1.19,0,0,0-1.21-1.09A1.26,1.26,0,0,0,67.07,136.27Z"/><path class="cls-2" d="M74.09,134.66h.66v3.76h-.66v-.65a1.56,1.56,0,0,1-1.41.74,1.78,1.78,0,0,1-1.35-.57,2.06,2.06,0,0,1,0-2.8,1.81,1.81,0,0,1,1.35-.57,1.56,1.56,0,0,1,1.41.74Zm-.38,2.84a1.3,1.3,0,0,0,.38-1,1.26,1.26,0,0,0-.38-.95,1.23,1.23,0,0,0-.95-.39,1.25,1.25,0,0,0-1,.39,1.3,1.3,0,0,0-.38.95,1.34,1.34,0,0,0,.38,1,1.27,1.27,0,0,0,1,.38A1.26,1.26,0,0,0,73.71,137.5Z"/><path class="cls-2" d="M79.59,133.16a1.7,1.7,0,0,1,1.21,2.89,1.61,1.61,0,0,1-1.21.49H78.38v1.88h-.7v-5.26Zm0,2.73a1,1,0,0,0,.72-.3,1,1,0,0,0,.29-.74,1,1,0,0,0-1-1H78.38v2.07Z"/><path class="cls-2" d="M82.05,138.42v-5.48h.65v5.48Z"/><path class="cls-2" d="M86.81,134.66h.65v3.76h-.65v-.65a1.59,1.59,0,0,1-1.42.74,1.78,1.78,0,0,1-1.35-.57,2.06,2.06,0,0,1,0-2.8,1.81,1.81,0,0,1,1.35-.57,1.59,1.59,0,0,1,1.42.74Zm-.39,2.84a1.3,1.3,0,0,0,.39-1,1.27,1.27,0,0,0-.39-.95,1.23,1.23,0,0,0-1-.39,1.25,1.25,0,0,0-1,.39,1.3,1.3,0,0,0-.38.95,1.34,1.34,0,0,0,.38,1,1.27,1.27,0,0,0,1,.38A1.26,1.26,0,0,0,86.42,137.5Z"/><path class="cls-2" d="M91.78,136.11v2.31h-.66v-2.27a.87.87,0,0,0-.93-1c-.65,0-1.09.4-1.09,1.24v2h-.65v-3.76h.65v.54a1.35,1.35,0,0,1,1.22-.63A1.4,1.4,0,0,1,91.78,136.11Z"/><path class="cls-2" d="M94.73,135.29h-1v2c0,.58.33.53,1,.5v.59c-1.14.15-1.65-.16-1.65-1.09v-2h-.75v-.63h.75v-.85l.65-.2v1h1Z"/><path class="cls-2" d="M98.17,137.76h2.44v.66H97.47v-5.26h3.1v.66h-2.4v1.62h2.21v.65H98.17Z"/><path class="cls-2" d="M104.64,138.42h-.77L102.82,137l-1.06,1.42H101l1.44-1.93-1.36-1.83h.77l1,1.31,1-1.31h.76l-1.35,1.82Z"/><path class="cls-2" d="M107.29,135.29h-1v2c0,.58.33.53,1,.5v.59c-1.14.15-1.65-.16-1.65-1.09v-2h-.75v-.63h.75v-.85l.65-.2v1h1Z"/><path class="cls-2" d="M108.74,135.29a1.18,1.18,0,0,1,1.17-.69v.68a1.21,1.21,0,0,0-.83.25,1.09,1.09,0,0,0-.34.9v2h-.66v-3.76h.66Z"/><path class="cls-2" d="M113.45,134.66h.66v3.76h-.66v-.65a1.57,1.57,0,0,1-1.42.74,1.77,1.77,0,0,1-1.34-.57,2,2,0,0,1,0-2.8,1.81,1.81,0,0,1,1.34-.57,1.57,1.57,0,0,1,1.42.74Zm-.38,2.84a1.3,1.3,0,0,0,.38-1,1.26,1.26,0,0,0-.38-.95,1.35,1.35,0,0,0-1.9,0,1.26,1.26,0,0,0-.38.95,1.3,1.3,0,0,0,.38,1,1.38,1.38,0,0,0,1.9,0Z"/><path class="cls-2" d="M115.45,138a1.91,1.91,0,0,1-.56-1.41,1.93,1.93,0,0,1,2-2,1.8,1.8,0,0,1,1.66,1l-.55.31a1.22,1.22,0,0,0-1.11-.66,1.26,1.26,0,0,0-.94.39,1.3,1.3,0,0,0-.38.95,1.31,1.31,0,0,0,.38,1,1.29,1.29,0,0,0,.94.38,1.26,1.26,0,0,0,1.13-.65l.56.32a2,2,0,0,1-3.1.41Z"/><path class="cls-2" d="M121.24,135.29h-1v2c0,.58.33.53,1,.5v.59c-1.14.15-1.65-.16-1.65-1.09v-2h-.75v-.63h.75v-.85l.65-.2v1h1Z"/><path class="cls-2" d="M123.62,138.42v-.78l1.79-1.84a1.77,1.77,0,0,0,.6-1.05.65.65,0,0,0-.68-.69.93.93,0,0,0-.88.62l-.87-.51a1.86,1.86,0,0,1,1.74-1.11,1.79,1.79,0,0,1,1.22.45,1.51,1.51,0,0,1,.51,1.2,2.47,2.47,0,0,1-.86,1.68l-1,1h2v1Z"/><path class="cls-2" d="M128.15,137.78a3.26,3.26,0,0,1-.56-2,3.21,3.21,0,0,1,.56-2,2,2,0,0,1,3.09,0,3.21,3.21,0,0,1,.55,2,3.26,3.26,0,0,1-.55,2,2,2,0,0,1-3.09,0Zm1.54-3.72c-.7,0-1.06.61-1.06,1.73s.36,1.72,1.06,1.72,1.08-.61,1.08-1.72S130.39,134.06,129.69,134.06Z"/><path class="cls-2" d="M132.88,137.78a3.26,3.26,0,0,1-.56-2,3.21,3.21,0,0,1,.56-2,2,2,0,0,1,3.09,0,3.21,3.21,0,0,1,.55,2,3.26,3.26,0,0,1-.55,2,2,2,0,0,1-3.09,0Zm1.54-3.72c-.7,0-1.06.61-1.06,1.73s.36,1.72,1.06,1.72,1.08-.61,1.08-1.72S135.12,134.06,134.42,134.06Z"/><path class="cls-2" d="M142.8,136.1v2.32h-1v-2.25c0-.45-.23-.71-.63-.71s-.7.3-.7.85v2.11h-1v-2.25c0-.45-.24-.71-.63-.71s-.71.3-.71.85v2.11h-1v-3.76h1v.4a1.16,1.16,0,0,1,1-.5,1.1,1.1,0,0,1,1,.54,1.28,1.28,0,0,1,1.12-.54A1.39,1.39,0,0,1,142.8,136.1Z"/><path class="cls-2" d="M146.5,134.66h.95v3.58a1.63,1.63,0,0,1-.58,1.33,2.16,2.16,0,0,1-1.38.45,1.91,1.91,0,0,1-1.78-.91l.83-.47a1,1,0,0,0,1,.52.87.87,0,0,0,1-.92v-.41a1.4,1.4,0,0,1-1.2.57,1.81,1.81,0,0,1-1.33-.55,1.93,1.93,0,0,1-.54-1.37,1.9,1.9,0,0,1,.54-1.36,1.8,1.8,0,0,1,1.33-.56,1.4,1.4,0,0,1,1.2.57Zm-.3,1.09a1,1,0,0,0-.75-.29,1.07,1.07,0,0,0-.76.29,1,1,0,1,0,1.81.73A.94.94,0,0,0,146.2,135.75Z"/><path class="cls-2" d="M10.18,152A1.44,1.44,0,0,1,9.74,153a1.49,1.49,0,0,1-1.08.42H6.39v-5.25h2.1a1.43,1.43,0,0,1,1,.41,1.4,1.4,0,0,1,.43,1,1.26,1.26,0,0,1-.57,1.1A1.33,1.33,0,0,1,10.18,152Zm-3.09-3.12v1.61h1.4A.8.8,0,0,0,9,149.07a.72.72,0,0,0-.55-.24Zm1.57,3.95a.83.83,0,0,0,.83-.85.85.85,0,0,0-.24-.61.81.81,0,0,0-.59-.24H7.09v1.7Z"/><path class="cls-2" d="M10.94,153.43V148h.66v5.48Z"/><path class="cls-2" d="M15.7,149.68h.66v3.75H15.7v-.64a1.59,1.59,0,0,1-1.42.74,1.81,1.81,0,0,1-1.34-.57,2,2,0,0,1,0-2.8,1.82,1.82,0,0,1,1.34-.58,1.57,1.57,0,0,1,1.42.75Zm-.38,2.84a1.3,1.3,0,0,0,.38-1,1.33,1.33,0,1,0-2.66,0,1.3,1.3,0,0,0,.38,1,1.38,1.38,0,0,0,1.9,0Z"/><path class="cls-2" d="M17.7,153a2.06,2.06,0,0,1,0-2.82,1.92,1.92,0,0,1,1.41-.57,1.81,1.81,0,0,1,1.66,1l-.55.31a1.2,1.2,0,0,0-1.11-.66,1.29,1.29,0,0,0-.94.38,1.32,1.32,0,0,0-.38,1,1.29,1.29,0,0,0,.38.94,1.26,1.26,0,0,0,.94.39,1.28,1.28,0,0,0,1.14-.66l.55.33a1.9,1.9,0,0,1-1.69,1A2,2,0,0,1,17.7,153Z"/><path class="cls-2" d="M24.62,153.43h-.81l-1.71-1.78v1.78h-.65v-5.25h.65v3.16l1.62-1.66h.84l-1.79,1.82Z"/><path class="cls-2" d="M29.08,148.18a1.61,1.61,0,0,1,1.21.49,1.69,1.69,0,0,1-1.21,2.89H27.87v1.87h-.69v-5.25Zm0,2.72a.91.91,0,0,0,.72-.29,1,1,0,0,0,.29-.74,1,1,0,0,0-1-1H27.87v2.07Z"/><path class="cls-2" d="M31.71,151.86a1.29,1.29,0,0,0,1.36,1.06,1.17,1.17,0,0,0,1.08-.55l.56.31a1.84,1.84,0,0,1-1.66.85A2,2,0,0,1,31.6,153a2,2,0,0,1-.56-1.42,1.92,1.92,0,0,1,2-2,1.7,1.7,0,0,1,1.34.59,2,2,0,0,1,.53,1.39c0,.1,0,.2,0,.3Zm0-.57h2.51A1.18,1.18,0,0,0,33,150.2,1.25,1.25,0,0,0,31.71,151.29Z"/><path class="cls-2" d="M39.05,150.16a2.06,2.06,0,0,1,0,2.8,1.81,1.81,0,0,1-1.35.57,1.61,1.61,0,0,1-1.42-.74v2.15h-.65v-5.26h.65v.65a1.6,1.6,0,0,1,1.42-.75A1.82,1.82,0,0,1,39.05,150.16Zm-.48,2.36a1.34,1.34,0,0,0,.38-1,1.32,1.32,0,0,0-.38-1,1.3,1.3,0,0,0-1-.39,1.27,1.27,0,0,0-.95.39,1.29,1.29,0,0,0-.39,1,1.32,1.32,0,0,0,1.34,1.34A1.33,1.33,0,0,0,38.57,152.52Z"/><path class="cls-2" d="M43.8,150.16a2.06,2.06,0,0,1,0,2.8,1.81,1.81,0,0,1-1.35.57,1.58,1.58,0,0,1-1.41-.74v2.15h-.66v-5.26H41v.65a1.57,1.57,0,0,1,1.41-.75A1.82,1.82,0,0,1,43.8,150.16Zm-.48,2.36a1.34,1.34,0,0,0,.38-1,1.32,1.32,0,0,0-.38-1,1.28,1.28,0,0,0-1-.39,1.27,1.27,0,0,0-.95.39,1.28,1.28,0,0,0-.38,1,1.3,1.3,0,0,0,1.33,1.34A1.31,1.31,0,0,0,43.32,152.52Z"/><path class="cls-2" d="M45.59,151.86A1.29,1.29,0,0,0,47,152.92a1.16,1.16,0,0,0,1.08-.55l.56.31a1.83,1.83,0,0,1-1.65.85,2,2,0,0,1-1.46-.55,2.11,2.11,0,0,1,0-2.83,1.89,1.89,0,0,1,1.42-.57,1.74,1.74,0,0,1,1.35.59,2,2,0,0,1,.52,1.39c0,.1,0,.2,0,.3Zm0-.57H48.1a1.18,1.18,0,0,0-1.21-1.09A1.26,1.26,0,0,0,45.59,151.29Z"/><path class="cls-2" d="M50.17,150.31a1.18,1.18,0,0,1,1.17-.7v.69a1.13,1.13,0,0,0-.83.25,1.08,1.08,0,0,0-.34.89v2h-.66v-3.75h.66Z"/><path class="cls-2" d="M54.62,154.18a7.26,7.26,0,0,1,0-6.75h.65a7.32,7.32,0,0,0,0,6.75Z"/><path class="cls-2" d="M57.93,148.18a1.61,1.61,0,0,1,1.21.49,1.69,1.69,0,0,1-1.21,2.89H56.72v1.87H56v-5.25Zm0,2.72a.94.94,0,0,0,.72-.29,1,1,0,0,0,.29-.74,1,1,0,0,0-1-1H56.72v2.07Z"/><path class="cls-2" d="M60.27,148.56a.44.44,0,1,1,.44.44A.44.44,0,0,1,60.27,148.56Zm.11,4.87v-3.75H61v3.75Z"/><path class="cls-2" d="M65.45,150.16a2,2,0,0,1,0,2.8,1.81,1.81,0,0,1-1.34.57,1.6,1.6,0,0,1-1.42-.74v2.15H62v-5.26h.65v.65a1.59,1.59,0,0,1,1.42-.75A1.82,1.82,0,0,1,65.45,150.16ZM65,152.52a1.3,1.3,0,0,0,.38-1,1.28,1.28,0,0,0-.38-1,1.26,1.26,0,0,0-.94-.39,1.29,1.29,0,0,0-1,.39,1.32,1.32,0,0,0-.38,1,1.34,1.34,0,0,0,.38,1,1.32,1.32,0,0,0,1,.38A1.29,1.29,0,0,0,65,152.52Z"/><path class="cls-2" d="M67.25,151.86a1.27,1.27,0,0,0,1.36,1.06,1.18,1.18,0,0,0,1.08-.55l.55.31a1.82,1.82,0,0,1-1.65.85,2,2,0,0,1-1.46-.55,2,2,0,0,1-.55-1.42,1.91,1.91,0,0,1,.55-1.41,1.88,1.88,0,0,1,1.42-.57,1.73,1.73,0,0,1,1.34.59,2,2,0,0,1,.52,1.39,1.51,1.51,0,0,1,0,.3Zm0-.57h2.5a1.18,1.18,0,0,0-1.2-1.09A1.25,1.25,0,0,0,67.25,151.29Z"/><path class="cls-2" d="M71.82,150.31a1.19,1.19,0,0,1,1.17-.7v.69a1.16,1.16,0,0,0-.83.25,1.08,1.08,0,0,0-.34.89v2h-.65v-3.75h.65Z"/><path class="cls-2" d="M78.84,148.18h.7v5.25H79l-2.7-3.92v3.92h-.7v-5.25h.57l2.7,3.92Z"/><path class="cls-2" d="M80.48,148.56a.45.45,0,0,1,.45-.44.44.44,0,0,1,0,.88A.45.45,0,0,1,80.48,148.56Zm.12,4.87v-3.75h.65v3.75Z"/><path class="cls-2" d="M85.36,149.68H86v3.6a1.6,1.6,0,0,1-.56,1.29,2.07,2.07,0,0,1-1.35.46,1.85,1.85,0,0,1-1.78-.91l.57-.33a1.21,1.21,0,0,0,1.22.64,1.11,1.11,0,0,0,1.25-1.15v-.54a1.57,1.57,0,0,1-1.41.75,1.8,1.8,0,0,1-1.36-.57,2,2,0,0,1,0-2.77,1.84,1.84,0,0,1,1.36-.57,1.57,1.57,0,0,1,1.41.75Zm-.38.91a1.26,1.26,0,0,0-1-.38,1.3,1.3,0,0,0-1.34,1.32A1.3,1.3,0,0,0,84,152.87a1.3,1.3,0,0,0,1-.38,1.28,1.28,0,0,0,.38-1A1.25,1.25,0,0,0,85,150.59Z"/><path class="cls-2" d="M87.65,150.31a1.2,1.2,0,0,1,1.18-.7v.69a1.13,1.13,0,0,0-.83.25,1.08,1.08,0,0,0-.35.89v2H87v-3.75h.65Z"/><path class="cls-2" d="M92.05,149.68h.66v3.75h-.66v-.54a1.31,1.31,0,0,1-1.21.64A1.41,1.41,0,0,1,89.38,152v-2.3H90V152a.87.87,0,0,0,.94,1c.65,0,1.08-.4,1.08-1.24Z"/><path class="cls-2" d="M99.16,151.1v2.33h-.65v-2.31a.8.8,0,0,0-.83-.91c-.56,0-.92.36-.92,1.14v2.08h-.65v-2.31c0-.58-.31-.91-.8-.91s-1,.38-1,1.14v2.08H93.7v-3.75h.65v.5a1.27,1.27,0,0,1,1.12-.6,1.16,1.16,0,0,1,1.1.64,1.3,1.3,0,0,1,1.18-.64A1.38,1.38,0,0,1,99.16,151.1Z"/><path class="cls-2" d="M99.76,154.18a7.26,7.26,0,0,0,0-6.75h.66a7.32,7.32,0,0,1,0,6.75Z"/><path class="cls-2" d="M107.14,148.84h-2.32v1.7h2.23v.66h-2.23v2.23h-.7v-5.25h3Z"/><path class="cls-2" d="M108.58,150.31a1.19,1.19,0,0,1,1.17-.7v.69a1.16,1.16,0,0,0-.83.25,1.08,1.08,0,0,0-.34.89v2h-.65v-3.75h.65Z"/><path class="cls-2" d="M113,149.68h.65v3.75H113v-.54a1.32,1.32,0,0,1-1.22.64,1.4,1.4,0,0,1-1.45-1.55v-2.3H111V152a.87.87,0,0,0,.93,1c.65,0,1.09-.4,1.09-1.24Z"/><path class="cls-2" d="M114.51,148.56a.44.44,0,1,1,.44.44A.44.44,0,0,1,114.51,148.56Zm.11,4.87v-3.75h.66v3.75Z"/><path class="cls-2" d="M118.32,150.31h-1v2c0,.57.33.53,1,.5v.58c-1.14.15-1.65-.15-1.65-1.08v-2h-.75v-.63h.75v-.86l.65-.19v1.05h1Z"/><path class="cls-2" d="M121.76,152.77h2.44v.66h-3.14v-5.25h3.1v.66h-2.4v1.61H124v.66h-2.21Z"/><path class="cls-2" d="M128.23,153.43h-.77l-1-1.42-1.06,1.42h-.76L126,151.5l-1.36-1.82h.77l1,1.31,1-1.31h.76l-1.35,1.82Z"/><path class="cls-2" d="M130.88,150.31h-1v2c0,.57.33.53,1,.5v.58c-1.14.15-1.65-.15-1.65-1.08v-2h-.75v-.63h.75v-.86l.65-.19v1.05h1Z"/><path class="cls-2" d="M132.33,150.31a1.19,1.19,0,0,1,1.17-.7v.69a1.16,1.16,0,0,0-.83.25,1.08,1.08,0,0,0-.34.89v2h-.66v-3.75h.66Z"/><path class="cls-2" d="M137,149.68h.66v3.75H137v-.64a1.59,1.59,0,0,1-1.42.74,1.81,1.81,0,0,1-1.34-.57,2,2,0,0,1,0-2.8,1.82,1.82,0,0,1,1.34-.58,1.57,1.57,0,0,1,1.42.75Zm-.38,2.84a1.34,1.34,0,0,0,.38-1,1.32,1.32,0,0,0-.38-1,1.28,1.28,0,0,0-.95-.39,1.27,1.27,0,0,0-1,.39,1.32,1.32,0,0,0-.38,1,1.34,1.34,0,0,0,.38,1,1.3,1.3,0,0,0,1,.38A1.31,1.31,0,0,0,136.66,152.52Z"/><path class="cls-2" d="M139,153a2,2,0,0,1,1.41-3.39,1.81,1.81,0,0,1,1.66,1l-.55.31a1.19,1.19,0,0,0-1.11-.66,1.29,1.29,0,0,0-.94.38,1.32,1.32,0,0,0-.38,1,1.29,1.29,0,0,0,.38.94,1.32,1.32,0,0,0,2.08-.27l.55.33a1.9,1.9,0,0,1-1.69,1A2,2,0,0,1,139,153Z"/><path class="cls-2" d="M144.83,150.31h-1v2c0,.57.33.53,1,.5v.58c-1.14.15-1.65-.15-1.65-1.08v-2h-.75v-.63h.75v-.86l.65-.19v1.05h1Z"/><path class="cls-2" d="M149.11,150.09a1.82,1.82,0,0,1,1.27.46,1.76,1.76,0,0,1,0,2.53,2,2,0,0,1-1.32.46,1.85,1.85,0,0,1-1.84-1.13l.89-.52a.87.87,0,0,0,.95.64c.53,0,.84-.27.84-.72a.71.71,0,0,0-.81-.71h-1.6l.21-2.92h3v1h-2l-.07.94Z"/><path class="cls-2" d="M157.13,151.12v2.31h-1v-2.24c0-.45-.24-.71-.64-.71s-.69.3-.69.84v2.11h-1v-2.24c0-.45-.23-.71-.63-.71s-.71.3-.71.84v2.11h-1v-3.75h1v.4a1.16,1.16,0,0,1,1.05-.5,1.12,1.12,0,0,1,1,.54,1.26,1.26,0,0,1,1.12-.54A1.38,1.38,0,0,1,157.13,151.12Z"/><path class="cls-2" d="M160.84,149.68h.94v3.57a1.59,1.59,0,0,1-.58,1.33,2.11,2.11,0,0,1-1.38.46,1.91,1.91,0,0,1-1.78-.92l.83-.47a1,1,0,0,0,1,.53.88.88,0,0,0,1-.93v-.4a1.43,1.43,0,0,1-1.2.57,1.79,1.79,0,0,1-1.34-.56,1.92,1.92,0,0,1-.53-1.36,1.87,1.87,0,0,1,.54-1.36,1.75,1.75,0,0,1,1.33-.56,1.4,1.4,0,0,1,1.2.57Zm-.3,1.09a1.13,1.13,0,0,0-1.51,0,1,1,0,0,0-.3.73,1.06,1.06,0,0,0,2.11,0A1,1,0,0,0,160.54,150.77Z"/><path class="cls-2" d="M166.61,60.23A1.56,1.56,0,0,1,168,61.78a1.5,1.5,0,0,1-.53,1.21,1.92,1.92,0,0,1-1.27.44,1.73,1.73,0,0,1-1.73-1.06L165,62a1.06,1.06,0,0,0,1.15.73,1,1,0,1,0,0-2H166l-.28-.42,1.21-1.65H164.6v-.65h3.15v.62Z"/><path class="cls-2" d="M171.57,60.39a1.67,1.67,0,0,1,.51,1.27,1.71,1.71,0,0,1-.51,1.28,2,2,0,0,1-2.6,0,1.7,1.7,0,0,1-.5-1.28,1.76,1.76,0,0,1,.31-1l1.69-2.53h.8L170,59.91h.24A1.76,1.76,0,0,1,171.57,60.39Zm-2.41,1.27a1.12,1.12,0,1,0,1.11-1.1A1,1,0,0,0,169.16,61.66Z"/><path class="cls-2" d="M172,58.08h3.28v.62l-1.91,4.63h-.73l1.9-4.59H172Z"/><path class="cls-2" d="M176.27,60a1.12,1.12,0,0,1-.33-.82,1.11,1.11,0,0,1,.33-.82,1.15,1.15,0,0,1,.85-.35,1.13,1.13,0,0,1,.85.34,1.12,1.12,0,0,1,.34.83A1.09,1.09,0,0,1,178,60a1.12,1.12,0,0,1-.85.34A1.16,1.16,0,0,1,176.27,60Zm0,2.62,3.49-3.9.37.2-3.5,3.91Zm.83-2.83a.61.61,0,1,0-.6-.61A.59.59,0,0,0,177.12,59.76Zm2.27,3.66a1.15,1.15,0,0,1-1.19-1.16,1.13,1.13,0,0,1,.34-.82,1.23,1.23,0,0,1,1.7,0,1.13,1.13,0,0,1,.34.82,1.15,1.15,0,0,1-1.19,1.16Zm0-.55a.6.6,0,0,0,.43-.17.63.63,0,0,0,0-.87.57.57,0,0,0-.43-.18.6.6,0,0,0-.44.18.68.68,0,0,0,0,.87A.64.64,0,0,0,179.39,62.87Z"/><path class="cls-2" d="M165.72,73.1h.61v5.25h-.69v-4.5l-1.12.33-.18-.6Z"/><path class="cls-2" d="M167.18,78.35v-.57L169,75.89a2.06,2.06,0,0,0,.74-1.28.89.89,0,0,0-.93-.94,1.12,1.12,0,0,0-1.08.71l-.59-.35a1.78,1.78,0,0,1,1.66-1,1.66,1.66,0,0,1,1.15.43,1.54,1.54,0,0,1,.49,1.18,2.62,2.62,0,0,1-.94,1.73l-1.34,1.34h2.37v.67Z"/><path class="cls-2" d="M172.84,75.15a1.87,1.87,0,0,1,1.25.44,1.66,1.66,0,0,1,0,2.42,1.93,1.93,0,0,1-1.28.44,1.73,1.73,0,0,1-1.73-1.13l.59-.33a1.09,1.09,0,0,0,1.14.78c.67,0,1.12-.36,1.12-1a1,1,0,0,0-1.1-1h-1.49l.2-2.72h2.87v.65h-2.24l-.09,1.4Z"/><path class="cls-2" d="M175.49,75a1.17,1.17,0,0,1,0-1.65,1.22,1.22,0,0,1,1.69,0,1.09,1.09,0,0,1,.34.82,1.12,1.12,0,0,1-.34.83,1.22,1.22,0,0,1-1.69,0Zm0,2.62L179,73.7l.37.21-3.5,3.91Zm.83-2.83a.59.59,0,0,0,.6-.62.59.59,0,0,0-.6-.61.62.62,0,0,0,0,1.23Zm2.27,3.66a1.15,1.15,0,0,1-.85-.34,1.13,1.13,0,0,1-.34-.82,1.16,1.16,0,0,1,.34-.83,1.23,1.23,0,0,1,1.7,0,1.16,1.16,0,0,1,.34.83,1.13,1.13,0,0,1-.34.82A1.15,1.15,0,0,1,178.6,78.44Zm0-.55a.57.57,0,0,0,.43-.18.62.62,0,0,0,0-.86.6.6,0,0,0-.86,0,.64.64,0,0,0,0,.86A.57.57,0,0,0,178.6,77.89Z"/><path class="cls-2" d="M165.72,88.11h.61v5.26h-.69V88.86l-1.12.33-.18-.6Z"/><path class="cls-2" d="M169.28,93.47a1.74,1.74,0,0,1-1.5-.75,4,4,0,0,1,0-4,1.74,1.74,0,0,1,1.5-.74,1.72,1.72,0,0,1,1.49.74,4,4,0,0,1,0,4A1.73,1.73,0,0,1,169.28,93.47Zm0-.69c.84,0,1.33-.74,1.33-2s-.49-2-1.33-2-1.33.74-1.33,2S168.43,92.78,169.28,92.78Z"/><path class="cls-2" d="M174,93.47a1.74,1.74,0,0,1-1.5-.75,4,4,0,0,1,0-4A1.74,1.74,0,0,1,174,88a1.72,1.72,0,0,1,1.49.74,4,4,0,0,1,0,4A1.73,1.73,0,0,1,174,93.47Zm0-.69c.84,0,1.33-.74,1.33-2s-.49-2-1.33-2-1.33.74-1.33,2S173.16,92.78,174,92.78Z"/><path class="cls-2" d="M177,90a1.12,1.12,0,0,1-.33-.82,1.14,1.14,0,0,1,.33-.82,1.16,1.16,0,0,1,.85-.34A1.15,1.15,0,0,1,179,89.18a1.13,1.13,0,0,1-.34.82,1.12,1.12,0,0,1-.85.34A1.15,1.15,0,0,1,177,90Zm0,2.62,3.49-3.9.37.2-3.5,3.91Zm.83-2.83a.61.61,0,1,0-.6-.61A.59.59,0,0,0,177.82,89.79Zm2.27,3.67a1.15,1.15,0,0,1-.85-.34,1.12,1.12,0,0,1-.34-.83,1.09,1.09,0,0,1,.34-.82,1.23,1.23,0,0,1,1.7,0,1.12,1.12,0,0,1,.33.82,1.15,1.15,0,0,1-1.18,1.17Zm0-.56a.61.61,0,0,0,.43-.17.62.62,0,0,0,0-.86.58.58,0,0,0-.43-.18.6.6,0,0,0-.44.18.6.6,0,0,0,.44,1Z"/><polygon class="cls-2" points="171.83 109.93 171.83 104.41 170.1 104.41 170.1 103.37 171.83 103.37 171.83 101.53 173.09 101.53 173.09 103.37 174.71 103.37 174.71 104.41 173.09 104.41 173.09 109.93 171.83 109.93"/><polygon class="cls-2" points="171.83 125.06 171.83 119.54 170.1 119.54 170.1 118.5 171.83 118.5 171.83 116.66 173.09 116.66 173.09 118.5 174.71 118.5 174.71 119.54 173.09 119.54 173.09 125.06 171.83 125.06"/><polygon class="cls-2" points="7.52 167.89 7.52 162.92 5.97 162.92 5.97 161.99 7.52 161.99 7.52 160.33 8.66 160.33 8.66 161.99 10.11 161.99 10.11 162.92 8.66 162.92 8.66 167.89 7.52 167.89"/><path class="cls-2" d="M16.14,161.84a1.76,1.76,0,0,1,1.35.58,2,2,0,0,1,.54,1.41,2,2,0,0,1-.54,1.42,1.78,1.78,0,0,1-1.35.57H14.58v-4Zm0,3.48a1.28,1.28,0,0,0,1-.42,1.53,1.53,0,0,0,.39-1.07,1.51,1.51,0,0,0-.39-1.06,1.25,1.25,0,0,0-1-.43h-1v3Z"/><path class="cls-2" d="M21,163h.5v2.84H21v-.48a1.2,1.2,0,0,1-1.07.56,1.36,1.36,0,0,1-1-.43,1.56,1.56,0,0,1,0-2.13,1.37,1.37,0,0,1,1-.44,1.19,1.19,0,0,1,1.07.57Zm-.29,2.15a1,1,0,0,0,.29-.73,1,1,0,0,0-1-1,1,1,0,0,0-1,1,1,1,0,0,0,1,1A1,1,0,0,0,20.68,165.13Z"/><path class="cls-2" d="M22.13,162.13a.34.34,0,1,1,.34.33A.34.34,0,0,1,22.13,162.13Zm.09,3.69V163h.49v2.84Z"/><path class="cls-2" d="M23.47,165.82v-4.15H24v4.15Z"/><path class="cls-2" d="M26.71,163h.53l-1.16,3a1.28,1.28,0,0,1-1.27,1v-.46c.35,0,.61-.16.77-.58l.05-.11L24.39,163h.53l1,2.23Z"/><path class="cls-2" d="M30.17,165.82l-1.43-4h.57l1.16,3.32,1.15-3.32h.57l-1.43,4Z"/><path class="cls-2" d="M34.62,163h.5v2.84h-.5v-.48a1.2,1.2,0,0,1-1.07.56,1.36,1.36,0,0,1-1-.43,1.56,1.56,0,0,1,0-2.13,1.37,1.37,0,0,1,1-.44,1.19,1.19,0,0,1,1.07.57Zm-.29,2.15a1,1,0,0,0,.29-.73,1,1,0,0,0-.29-.72,1,1,0,0,0-1.44,0,1,1,0,0,0-.29.72,1,1,0,0,0,.29.73,1,1,0,0,0,1.44,0Z"/><path class="cls-2" d="M35.87,165.82v-4.15h.49v4.15Z"/><path class="cls-2" d="M39.08,163h.5v2.84h-.5v-.41a1,1,0,0,1-.92.49,1.07,1.07,0,0,1-1.11-1.17V163h.5v1.72a.66.66,0,0,0,.71.73c.49,0,.82-.31.82-.94Z"/><path class="cls-2" d="M40.67,164.63a1,1,0,0,0,1,.8.88.88,0,0,0,.82-.41l.42.24a1.4,1.4,0,0,1-1.25.64,1.44,1.44,0,0,1-1.52-1.5,1.44,1.44,0,0,1,1.49-1.5,1.31,1.31,0,0,1,1,.45,1.53,1.53,0,0,1,.39,1.06,1.7,1.7,0,0,1,0,.22Zm0-.43h1.9a.9.9,0,0,0-.91-.83A1,1,0,0,0,40.67,164.2Z"/><path class="cls-2" d="M47.59,164.08v1.74h-.5v-1.71a.66.66,0,0,0-.7-.73c-.5,0-.83.3-.83.94v1.5h-.5V163h.5v.41a1,1,0,0,1,.92-.49A1.07,1.07,0,0,1,47.59,164.08Z"/><path class="cls-2" d="M49.61,165.9a1.45,1.45,0,0,1-1.06-.43,1.46,1.46,0,0,1-.44-1.07,1.44,1.44,0,0,1,.44-1.06,1.46,1.46,0,0,1,1.06-.44,1.44,1.44,0,0,1,1.06.44,1.4,1.4,0,0,1,.44,1.06,1.49,1.49,0,0,1-1.5,1.5Zm.72-.78a1,1,0,0,0,0-1.44,1,1,0,0,0-.72-.29,1,1,0,0,0-.71,1.73.94.94,0,0,0,.71.29A1,1,0,0,0,50.33,165.12Z"/><path class="cls-2" d="M53.18,163.46h-.75V165c0,.44.25.4.75.38v.44c-.86.12-1.25-.11-1.25-.82v-1.54h-.56V163h.56v-.65l.5-.15v.8h.75Z"/><path class="cls-2" d="M55.55,164.63a1,1,0,0,0,1,.8.9.9,0,0,0,.82-.41l.42.24a1.42,1.42,0,0,1-1.26.64,1.53,1.53,0,0,1-1.11-2.57,1.47,1.47,0,0,1,1.08-.43,1.29,1.29,0,0,1,1,.45,1.49,1.49,0,0,1,.4,1.06,1.8,1.8,0,0,1,0,.22Zm0-.43h1.91a.92.92,0,0,0-.92-.83A1,1,0,0,0,55.55,164.2Z"/><path class="cls-2" d="M59.4,164.17c.45.1,1,.27,1,.88a.76.76,0,0,1-.3.62,1.23,1.23,0,0,1-.76.23,1.16,1.16,0,0,1-1.14-.67l.43-.24a.7.7,0,0,0,.71.44c.32,0,.56-.12.56-.38s-.25-.35-.56-.43-1-.26-1-.87a.77.77,0,0,1,.28-.61,1.08,1.08,0,0,1,.72-.24,1.11,1.11,0,0,1,1,.6l-.42.23a.59.59,0,0,0-.61-.36c-.27,0-.5.13-.5.38S59.09,164.09,59.4,164.17Z"/><path class="cls-2" d="M62.45,163.46h-.76V165c0,.44.25.4.76.38v.44c-.86.12-1.25-.11-1.25-.82v-1.54h-.57V163h.57v-.65l.49-.15v.8h.76Z"/><path class="cls-2" d="M65.25,163h.49v2.84h-.49v-.48a1.21,1.21,0,0,1-1.08.56,1.34,1.34,0,0,1-1-.43,1.53,1.53,0,0,1,0-2.13,1.35,1.35,0,0,1,1-.44,1.19,1.19,0,0,1,1.08.57ZM65,165.13a1,1,0,0,0,.29-.73,1,1,0,0,0-.29-.72,1,1,0,0,0-1.44,0,1,1,0,0,0-.29.72,1,1,0,0,0,.29.73,1,1,0,0,0,1.44,0Z"/><path class="cls-2" d="M69.08,163.34a1.53,1.53,0,0,1,0,2.13,1.34,1.34,0,0,1-1,.43,1.21,1.21,0,0,1-1.08-.56v.48h-.5v-4H67v1.63a1.19,1.19,0,0,1,1.08-.57A1.35,1.35,0,0,1,69.08,163.34Zm-.36,1.79a1,1,0,0,0,.29-.73,1,1,0,0,0-.29-.72,1,1,0,0,0-1.44,0,1,1,0,0,0-.29.72,1,1,0,0,0,.29.73,1,1,0,0,0,1.44,0Z"/><path class="cls-2" d="M70.1,165.82v-4.15h.49v4.15Z"/><path class="cls-2" d="M71.26,162.13a.34.34,0,1,1,.34.33A.34.34,0,0,1,71.26,162.13Zm.09,3.69V163h.49v2.84Z"/><path class="cls-2" d="M73.58,164.17c.45.1,1,.27,1,.88a.76.76,0,0,1-.3.62,1.23,1.23,0,0,1-.76.23,1.14,1.14,0,0,1-1.13-.67l.42-.24a.7.7,0,0,0,.71.44c.32,0,.56-.12.56-.38s-.25-.35-.56-.43-1-.26-1-.87a.8.8,0,0,1,.28-.61,1.13,1.13,0,0,1,.73-.24,1.1,1.1,0,0,1,1,.6l-.41.23a.61.61,0,0,0-.61-.36c-.28,0-.51.13-.51.38S73.27,164.09,73.58,164.17Z"/><path class="cls-2" d="M77.69,164.08v1.74H77.2v-1.71a.66.66,0,0,0-.71-.73c-.5,0-.83.3-.83.94v1.5h-.49v-4h.49v1.55a1,1,0,0,1,.93-.49A1.07,1.07,0,0,1,77.69,164.08Z"/><path class="cls-2" d="M78.73,164.63a1,1,0,0,0,1,.8.9.9,0,0,0,.82-.41l.42.24a1.42,1.42,0,0,1-1.26.64,1.53,1.53,0,0,1-1.11-2.57,1.47,1.47,0,0,1,1.08-.43,1.29,1.29,0,0,1,1,.45,1.49,1.49,0,0,1,.4,1.06,1.8,1.8,0,0,1,0,.22Zm0-.43h1.9a.91.91,0,0,0-.92-.83A.94.94,0,0,0,78.73,164.2Z"/><path class="cls-2" d="M84.05,161.84h.49v4h-.49v-.48a1.23,1.23,0,0,1-1.08.56,1.36,1.36,0,0,1-1-.43,1.56,1.56,0,0,1,0-2.13,1.37,1.37,0,0,1,1-.44,1.22,1.22,0,0,1,1.08.57Zm-.29,3.29a1,1,0,0,0,.29-.73,1,1,0,0,0-1-1,1,1,0,0,0-1,1,1,1,0,0,0,1,1A1,1,0,0,0,83.76,165.13Z"/><path class="cls-2" d="M85.23,165.52a.37.37,0,0,1,.37-.37.36.36,0,0,1,.37.37.37.37,0,0,1-.37.37A.38.38,0,0,1,85.23,165.52Z"/><rect class="cls-2" x="5.83" y="51.85" width="190.08" height="2.1"/><rect class="cls-2" x="5.83" y="67.02" width="190.08" height="1.05"/><rect class="cls-2" x="5.83" y="82.72" width="190.08" height="1.05"/><rect class="cls-2" x="5.83" y="97.73" width="190.08" height="1.05"/><rect class="cls-2" x="5.83" y="112" width="190.08" height="1.05"/><rect class="cls-2" x="5.83" y="127.78" width="190.08" height="1.05"/><polygon class="cls-2" points="171.83 140.71 171.83 135.18 170.1 135.18 170.1 134.15 171.83 134.15 171.83 132.31 173.09 132.31 173.09 134.15 174.71 134.15 174.71 135.18 173.09 135.18 173.09 140.71 171.83 140.71"/><polygon class="cls-2" points="171.83 155.83 171.83 150.31 170.1 150.31 170.1 149.28 171.83 149.28 171.83 147.44 173.09 147.44 173.09 149.28 174.71 149.28 174.71 150.31 173.09 150.31 173.09 155.83 171.83 155.83"/><rect class="cls-2" x="5.83" y="143.55" width="190.08" height="1.05"/></g></g></svg>