<?xml version="1.0" encoding="UTF-8" standalone="no"?>
<!DOCTYPE svg PUBLIC "-//W3C//DTD SVG 1.1//EN" "http://www.w3.org/Graphics/SVG/1.1/DTD/svg11.dtd">
<svg width="100%" height="100%" viewBox="0 0 293 50" version="1.1" xmlns="http://www.w3.org/2000/svg" xmlns:xlink="http://www.w3.org/1999/xlink" xml:space="preserve" xmlns:serif="http://www.serif.com/" style="fill-rule:evenodd;clip-rule:evenodd;stroke-linejoin:round;stroke-miterlimit:2;">
    <g transform="matrix(1,0,0,1,-90.573,204.436)">
        <g transform="matrix(1,0,0,1,90.573,-204.436)">
            <g transform="matrix(1,0,0,1,0,-0.921)">
                <path d="M11.778,49.088L0.855,49.088L0.855,16.188L11.778,16.188L11.778,49.088ZM10.725,11.647C9.496,12.876 8.027,13.489 6.316,13.489C4.606,13.489 3.114,12.876 1.842,11.647C0.613,10.375 0,8.883 0,7.172C0,5.462 0.613,3.993 1.842,2.764C3.114,1.536 4.606,0.921 6.316,0.921C8.027,0.921 9.496,1.536 10.725,2.764C11.997,3.993 12.633,5.462 12.633,7.172C12.633,8.883 11.997,10.375 10.725,11.647" style="fill:white;fill-rule:nonzero;"/>
            </g>
            <g transform="matrix(1,0,0,1,55.8638,48.1672)">
                <path d="M0,-33.822C3.816,-33.822 6.832,-32.605 9.048,-30.17C11.262,-27.736 12.371,-24.39 12.371,-20.135L12.371,0L1.382,0L1.382,-18.885C1.382,-21.955 0.021,-23.491 -2.698,-23.491C-4.146,-23.491 -5.264,-23.008 -6.054,-22.044C-6.843,-21.078 -7.238,-19.718 -7.238,-17.964L-7.238,0L-18.161,0L-18.161,-18.885C-18.161,-21.955 -19.543,-23.491 -22.307,-23.491C-23.754,-23.491 -24.873,-23.008 -25.663,-22.044C-26.452,-21.078 -26.847,-19.718 -26.847,-17.964L-26.847,0L-37.77,0L-37.77,-32.901L-26.847,-32.901L-26.847,-29.808C-24.83,-32.483 -21.869,-33.822 -17.964,-33.822C-14.191,-33.822 -11.383,-32.418 -9.541,-29.611C-7.261,-32.418 -4.08,-33.822 0,-33.822" style="fill:white;fill-rule:nonzero;"/>
            </g>
            <g transform="matrix(1,0,0,1,111.926,48.1672)">
                <path d="M0,-33.822C3.816,-33.822 6.832,-32.605 9.048,-30.17C11.262,-27.736 12.371,-24.39 12.371,-20.135L12.371,0L1.382,0L1.382,-18.885C1.382,-21.955 0.021,-23.491 -2.698,-23.491C-4.146,-23.491 -5.264,-23.008 -6.054,-22.044C-6.843,-21.078 -7.238,-19.718 -7.238,-17.964L-7.238,0L-18.161,0L-18.161,-18.885C-18.161,-21.955 -19.543,-23.491 -22.307,-23.491C-23.754,-23.491 -24.873,-23.008 -25.663,-22.044C-26.452,-21.078 -26.847,-19.718 -26.847,-17.964L-26.847,0L-37.77,0L-37.77,-32.901L-26.847,-32.901L-26.847,-29.808C-24.83,-32.483 -21.869,-33.822 -17.964,-33.822C-14.191,-33.822 -11.383,-32.418 -9.541,-29.611C-7.261,-32.418 -4.08,-33.822 0,-33.822" style="fill:white;fill-rule:nonzero;"/>
            </g>
            <g transform="matrix(1,0,0,1,151.077,31.5845)">
                <path d="M0,1.185L0,-16.318L10.923,-16.318L10.923,16.582L0,16.582L0,13.292C-1.975,16.1 -5.023,17.503 -9.146,17.503C-12.788,17.503 -15.716,16.265 -17.931,13.787C-20.146,11.308 -21.254,7.831 -21.254,3.357L-21.254,-16.318L-10.331,-16.318L-10.331,1.975C-10.331,3.642 -9.893,4.925 -9.015,5.825C-8.138,6.724 -6.932,7.173 -5.396,7.173C-3.685,7.173 -2.358,6.658 -1.415,5.626C-0.472,4.596 0,3.116 0,1.185" style="fill:white;fill-rule:nonzero;"/>
            </g>
            <g transform="matrix(1,0,0,1,188.386,48.1672)">
                <path d="M0,-33.822C3.641,-33.822 6.569,-32.582 8.785,-30.104C10.999,-27.625 12.107,-24.149 12.107,-19.674L12.107,0L1.185,0L1.185,-18.292C1.185,-19.959 0.746,-21.242 -0.131,-22.142C-1.01,-23.041 -2.216,-23.491 -3.75,-23.491C-5.461,-23.491 -6.788,-22.975 -7.731,-21.945C-8.675,-20.913 -9.146,-19.433 -9.146,-17.503L-9.146,0L-20.069,0L-20.069,-32.901L-9.146,-32.901L-9.146,-29.611C-7.172,-32.418 -4.124,-33.822 0,-33.822" style="fill:white;fill-rule:nonzero;"/>
            </g>
            <g transform="matrix(1,0,0,1,215.957,35.269)">
                <path d="M0,-7.105L12.634,-7.105C11.8,-10.176 9.738,-11.712 6.448,-11.712C3.07,-11.712 0.921,-10.176 0,-7.105M22.833,0.461L0.132,0.461C1.228,3.137 3.685,4.475 7.501,4.475C9.826,4.475 11.821,3.708 13.489,2.172L21.385,7.7C18.183,11.78 13.467,13.819 7.238,13.819C1.666,13.819 -2.808,12.197 -6.186,8.95C-9.52,5.66 -11.187,1.514 -11.187,-3.486C-11.187,-8.443 -9.541,-12.589 -6.251,-15.923C-2.961,-19.256 1.228,-20.924 6.316,-20.924C11.229,-20.924 15.287,-19.279 18.49,-15.989C21.691,-12.742 23.293,-8.619 23.293,-3.618C23.293,-2.082 23.14,-0.722 22.833,0.461" style="fill:white;fill-rule:nonzero;"/>
            </g>
            <g transform="matrix(1,0,0,1,263.466,39.7446)">
                <path d="M0,-24.478L0,-14.016L-6.843,-14.016L-6.843,-4.474C-6.843,-3.07 -6.35,-2.182 -5.362,-1.809C-4.376,-1.436 -2.589,-1.317 0,-1.448L0,8.422C-6.492,9.212 -11.099,8.62 -13.818,6.646C-16.45,4.584 -17.767,0.965 -17.767,-4.211L-17.767,-14.016L-22.701,-14.016L-22.701,-24.478L-17.767,-24.478L-17.767,-30.4L-6.843,-33.69L-6.843,-24.478L0,-24.478Z" style="fill:white;fill-rule:nonzero;"/>
            </g>
            <g transform="matrix(1,0,0,1,0,-0.921)">
                <path d="M279.456,49.088L268.533,49.088L268.533,16.188L279.456,16.188L279.456,49.088ZM278.403,11.647C277.175,12.876 275.706,13.489 273.995,13.489C272.284,13.489 270.792,12.876 269.521,11.647C268.292,10.375 267.678,8.883 267.678,7.172C267.678,5.462 268.292,3.993 269.521,2.764C270.792,1.536 272.284,0.921 273.995,0.921C275.706,0.921 277.175,1.536 278.403,2.764C279.676,3.993 280.312,5.462 280.312,7.172C280.312,8.883 279.676,10.375 278.403,11.647" style="fill:white;fill-rule:nonzero;"/>
            </g>
            <g transform="matrix(1,0,0,1,283.605,19.8799)">
                <path d="M0,-4.876L3.657,-4.876L3.657,-3.671L2.452,-3.671L2.452,0L1.205,0L1.205,-3.671L0,-3.671L0,-4.876Z" style="fill:white;fill-rule:nonzero;"/>
            </g>
            <g transform="matrix(1,0,0,1,291.448,19.8799)">
                <path d="M0,-4.876L1.239,-4.876L1.239,0L0,0L0,-2.626L-1.185,-0.669L-1.31,-0.669L-2.487,-2.619L-2.487,0L-3.734,0L-3.734,-4.876L-2.487,-4.876L-1.247,-2.793L0,-4.876Z" style="fill:white;fill-rule:nonzero;"/>
            </g>
        </g>
    </g>
</svg>
