<?xml version="1.0" encoding="UTF-8" standalone="no"?>
<!DOCTYPE svg PUBLIC "-//W3C//DTD SVG 1.1//EN" "http://www.w3.org/Graphics/SVG/1.1/DTD/svg11.dtd">
<svg width="100%" height="100%" viewBox="0 0 34 34" version="1.1" xmlns="http://www.w3.org/2000/svg" xmlns:xlink="http://www.w3.org/1999/xlink" xml:space="preserve" xmlns:serif="http://www.serif.com/" style="fill-rule:evenodd;clip-rule:evenodd;stroke-linejoin:round;stroke-miterlimit:2;">
    <g transform="matrix(1,0,0,1,-1722.61,-692.836)">
        <g id="Artboard8" transform="matrix(1.11429,0,0,1.12381,-123.333,-72.5776)">
            <rect x="1656.62" y="681.088" width="30" height="30" style="fill:none;"/>
            <g id="SITEIcons-26" transform="matrix(1.19658,0,0,1.18644,1671.62,700.593)">
                <g transform="matrix(1,0,0,1,-9.555,-8.21)">
                    <path d="M9.81,15.75L9.52,15.75C5.52,13.75 1.32,9.89 1.06,5.75C0.818,3.667 1.959,1.653 3.87,0.79C5.76,0.07 7.87,0.9 9.7,3.08C11.52,0.9 13.63,0.07 15.52,0.79C17.409,1.642 18.549,3.618 18.34,5.68C18.07,9.86 13.89,13.73 9.87,15.68L9.81,15.75ZM5.23,1.17C4.844,1.171 4.461,1.242 4.1,1.38C2.469,2.133 1.495,3.854 1.69,5.64C1.87,8.45 4.41,12.45 9.69,15.09C14.97,12.45 17.52,8.45 17.69,5.64C17.889,3.859 16.923,2.139 15.3,1.38C13.6,0.73 11.65,1.61 10,3.77L9.75,4.09L9.5,3.77C8.12,2.07 6.63,1.17 5.23,1.17Z" style="fill:#09278d;fill-rule:nonzero;"/>
                    <path d="M10.63,11.69L7.29,5.81L5.99,8.82L2.21,8.82L2.21,8.19L5.57,8.19L7.22,4.4L10.69,10.52L12.35,8.19L17.36,8.19L17.36,8.82L12.67,8.82L10.63,11.69Z" style="fill:#09278d;fill-rule:nonzero;"/>
                </g>
            </g>
        </g>
    </g>
</svg>
