<?xml version="1.0" encoding="UTF-8" standalone="no"?>
<!DOCTYPE svg PUBLIC "-//W3C//DTD SVG 1.1//EN" "http://www.w3.org/Graphics/SVG/1.1/DTD/svg11.dtd">
<svg width="100%" height="100%" viewBox="0 0 34 34" version="1.1" xmlns="http://www.w3.org/2000/svg" xmlns:xlink="http://www.w3.org/1999/xlink" xml:space="preserve" xmlns:serif="http://www.serif.com/" style="fill-rule:evenodd;clip-rule:evenodd;stroke-linejoin:round;stroke-miterlimit:2;">
    <g transform="matrix(1,0,0,1,-1722.61,-692.836)">
        <g id="Artboard8" transform="matrix(1.11429,0,0,1.12381,-123.333,-72.5776)">
            <rect x="1656.62" y="681.088" width="30" height="30" style="fill:none;"/>
            <g id="SITEIcons-24" transform="matrix(1.19658,0,0,1.18644,1671.78,696.512)">
                <g transform="matrix(1,0,0,1,-6.64,-11.475)">
                    <rect x="6.29" y="1.58" width="0.63" height="20.83" style="fill:#09278d;"/>
                    <path d="M6.6,18L6.44,17.9C3.08,15.9 1.16,12.79 1.16,9.47C1.16,6.15 3.08,3.08 6.44,1L6.6,0.94L6.77,1.04C10.12,3.04 12.05,6.16 12.05,9.48C12.05,12.8 10.12,15.87 6.77,17.91L6.6,18ZM6.6,1.67C3.54,3.61 1.79,6.44 1.79,9.48C1.79,12.52 3.54,15.35 6.6,17.27C9.67,15.35 11.42,12.52 11.42,9.48C11.42,6.44 9.67,3.6 6.6,1.68L6.6,1.67Z" style="fill:#09278d;fill-rule:nonzero;"/>
                    <g transform="matrix(0.837623,-0.546248,0.546248,0.837623,-3.44,6.35)">
                        <rect x="6.17" y="8.65" width="5.59" height="0.63" style="fill:#09278d;"/>
                    </g>
                    <g transform="matrix(0.837623,-0.546248,0.546248,0.837623,-5.16,6.97)">
                        <rect x="6.23" y="11.85" width="5.83" height="0.63" style="fill:#09278d;"/>
                    </g>
                    <g transform="matrix(0.837623,-0.546248,0.546248,0.837623,-1.88,5.51)">
                        <rect x="6.29" y="5.6" width="4.07" height="0.63" style="fill:#09278d;"/>
                    </g>
                </g>
            </g>
        </g>
    </g>
</svg>
