<?xml version="1.0" encoding="UTF-8" standalone="no"?>
<!DOCTYPE svg PUBLIC "-//W3C//DTD SVG 1.1//EN" "http://www.w3.org/Graphics/SVG/1.1/DTD/svg11.dtd">
<svg width="100%" height="100%" viewBox="0 0 34 34" version="1.1" xmlns="http://www.w3.org/2000/svg" xmlns:xlink="http://www.w3.org/1999/xlink" xml:space="preserve" xmlns:serif="http://www.serif.com/" style="fill-rule:evenodd;clip-rule:evenodd;stroke-linejoin:round;stroke-miterlimit:2;">
    <g transform="matrix(0.00614455,0,0,-0.00614455,6.10165,31.9732)">
        <path d="M1748,3550C1701,3549 75,2872 61,2863C48,2853 29,2829 19,2810C1,2777 0,2729 0,1775C0,821 1,773 19,740C29,721 48,697 61,687C75,678 1705,0 1750,0C1795,0 1904,42 2608,335C3051,519 3425,678 3439,687C3452,697 3471,721 3481,740C3499,773 3500,821 3500,1775C3500,2729 3499,2777 3481,2810C3471,2829 3452,2853 3439,2863C3425,2872 3051,3031 2608,3215C1887,3514 1796,3550 1748,3550ZM1760,3424C1768,3422 2438,3144 2437,3143C2436,3142 919,2512 919,2512C919,2512 240,2796 240,2799C240,2810 1745,3429 1760,3424ZM2947,2934C3119,2863 3260,2803 3260,2799C3260,2794 3040,2700 3027,2700C3023,2700 2625,2871 2625,2871L2065,2628C2065,2628 2421,2447 2419,2446C2417,2444 1750,2167 1750,2167C1750,2167 1100,2438 1100,2441C1100,2452 2595,3069 2615,3066C2626,3065 2776,3005 2947,2934ZM2644,2720C2656,2716 2838,2635 2843,2631C2847,2627 2585,2513 2585,2513C2585,2513 2384,2618 2388,2622C2392,2626 2629,2726 2644,2720ZM124,2700C126,2700 985,2344 985,2344L988,1947C989,1729 989,1550 988,1550C986,1550 125,1906 125,1906L122,2303C121,2521 121,2700 124,2700ZM3380,1761C3380,882 3379,821 3363,801C3352,788 3057,661 2595,469C2183,298 1837,156 1827,153C1811,148 1810,196 1812,1100L1815,2053L2495,2336C2495,2336 2489.37,1600.96 2499.37,1600.96C2505.37,1601.96 2653,1649 2810,1709L3095,1817L3100,2587C3100,2587 3368,2699 3373,2699C3377,2700 3380,2277 3380,1761ZM2963,2529C2967,2530 2965,1907 2965,1907L2875,1873C2826,1854 2750,1825 2707,1809L2630,1780L2635,2394C2635,2394 2958,2529 2963,2529ZM1123,2287C1129,2285 1679,2055 1683,2050C1687,2046 1685,1901 1685,1901L1110,2143C1110,2143 1113,2291 1123,2287ZM1109,2000L1685,1761C1685,1761 1689,1610 1687,1610C1685,1610 1115,1848 1115,1848L1109,2000ZM129,1760C134,1760 1690,1116 1690,1116L1690,1012C1690,917 1688,908 1673,914C1663,918 120,1555 120,1555L120,1658C120,1714 124,1760 129,1760ZM1109,1709L1690,1467L1690,1364C1690,1307 1687,1260 1683,1261C1678,1261 1115,1496 1115,1496L1109,1709ZM133,1408C141,1406 1690,765 1690,765L1690,631C1690,508 1689,498 1673,504C1663,508 121,1145 121,1145L120,1278C120,1385 123,1411 133,1408ZM128,1000C132,1000 1690,355 1690,355L1690,251C1690,157 1688,148 1673,153C1663,156 148,788 138,801C124,818 120,841 120,911C120,960 123,1000 128,1000Z" style="fill:rgb(9,39,141);fill-rule:nonzero;"/>
        <g transform="matrix(1.034,0,0,1.034,-49.8123,-96.5346)">
            <path d="M313,2509L260,2390.16C260,2390.16 381,2328 385,2332C393,2341 441,2442 438,2445C436,2446 313,2509 313,2509Z" style="fill:rgb(9,39,141);fill-rule:nonzero;"/>
        </g>
        <g transform="matrix(1.034,0,0,1.034,-49.8123,-96.5346)">
            <path d="M547,2390L492,2275L620,2210L674.198,2326.15L547,2390Z" style="fill:rgb(9,39,141);fill-rule:nonzero;"/>
        </g>
        <g transform="matrix(1.034,0,0,1.034,-49.8123,-96.5346)">
            <path d="M785,2270L730,2162C730,2162 854.05,2098.84 852.567,2100C854.567,2102 910,2210 910,2210L785,2270Z" style="fill:rgb(9,39,141);fill-rule:nonzero;"/>
        </g>
        <g transform="matrix(1.034,0,0,1.034,-49.8123,-96.5346)">
            <path d="M313.104,2218.01L260,2105C260,2105 381,2037 385,2042C393,2051 441,2152 438,2155C428,2163 313.104,2218.01 313.104,2218.01Z" style="fill:rgb(9,39,141);fill-rule:nonzero;"/>
        </g>
        <g transform="matrix(1.034,0,0,1.034,-49.8123,-96.5346)">
            <path d="M550,2100L492,1984L620,1920L674.198,2032.27L550,2100Z" style="fill:rgb(9,39,141);fill-rule:nonzero;"/>
        </g>
        <g transform="matrix(1.034,0,0,1.034,-49.8123,-96.5346)">
            <path d="M785,1980L730,1873L842,1810L895.293,1920L785,1980Z" style="fill:rgb(9,39,141);fill-rule:nonzero;"/>
        </g>
    </g>
</svg>
