<svg xmlns="http://www.w3.org/2000/svg" viewBox="0 0 243.46 52.55"><defs><style>.cls-1{fill:#09278d;}</style></defs><title>Vitamin Angels</title><g id="Layer_2" data-name="Layer 2"><g id="Layer_1-2" data-name="Layer 1"><path class="cls-1" d="M71.91,19.87H68.64a.34.34,0,0,0-.33.24l-2.54,7.4-2.7-7.41a.35.35,0,0,0-.33-.23H59.52a.34.34,0,0,0-.33.48l5,12.45a.35.35,0,0,0,.33.22h2.33a.37.37,0,0,0,.33-.22l5-12.45a.34.34,0,0,0-.33-.48Z"/><path class="cls-1" d="M77.94,19.87H75a.34.34,0,0,0-.35.35V32.66A.36.36,0,0,0,75,33h3a.38.38,0,0,0,.36-.36V20.22a.36.36,0,0,0-.36-.35Z"/><path class="cls-1" d="M87.75,19.87H86.31v-3.1a.34.34,0,0,0-.35-.35H83a.35.35,0,0,0-.24.1.36.36,0,0,0-.11.25v3.1h-1.1a.33.33,0,0,0-.25.1.35.35,0,0,0-.1.25v2.65a.31.31,0,0,0,.1.24.34.34,0,0,0,.25.11h1.1v9.44a.36.36,0,0,0,.11.26A.35.35,0,0,0,83,33h3a.39.39,0,0,0,.25-.1.4.4,0,0,0,.1-.26V23.21h1.44a.36.36,0,0,0,.25-.11.31.31,0,0,0,.1-.24V20.22a.34.34,0,0,0-.35-.35Z"/><path class="cls-1" d="M103.21,19.87h-2.74a.31.31,0,0,0-.24.1.36.36,0,0,0-.11.25v.72a6.5,6.5,0,0,0-.64-.51,5.69,5.69,0,0,0-3.18-1,6.65,6.65,0,0,0-6.58,6.92c0,4.32,3,7,6.41,7.06a6.68,6.68,0,0,0,4-1.47v.71a.33.33,0,0,0,.11.25.32.32,0,0,0,.24.11h2.74a.36.36,0,0,0,.35-.36V20.22a.39.39,0,0,0-.1-.25A.35.35,0,0,0,103.21,19.87ZM96.75,30A3.37,3.37,0,0,1,93.4,26.5a3.43,3.43,0,0,1,3.35-3.62A3.28,3.28,0,0,1,100,26.41,3.3,3.3,0,0,1,96.75,30Z"/><path class="cls-1" d="M121.16,19.44a5,5,0,0,0-4,1.72,4.56,4.56,0,0,0-3.6-1.72,4.44,4.44,0,0,0-3,.95v-.17a.35.35,0,0,0-.1-.25.31.31,0,0,0-.24-.1h-2.74a.39.39,0,0,0-.25.1.35.35,0,0,0-.1.25V32.66a.32.32,0,0,0,.1.25.36.36,0,0,0,.25.11h3a.34.34,0,0,0,.25-.11.32.32,0,0,0,.1-.25V26.45a7.14,7.14,0,0,1,.28-2.33,1.68,1.68,0,0,1,1.75-1.24c1.58,0,2.1,1.23,2.13,2.88v6.9a.33.33,0,0,0,.11.25.34.34,0,0,0,.25.11h3a.36.36,0,0,0,.35-.36V26.24a4.92,4.92,0,0,1,.39-2.36,2.12,2.12,0,0,1,1.77-1A1.7,1.7,0,0,1,122.61,24a4.83,4.83,0,0,1,.27,1.75v6.9a.32.32,0,0,0,.1.25.33.33,0,0,0,.25.11h3a.36.36,0,0,0,.35-.36V25.4a6.46,6.46,0,0,0-1-3.89A5.19,5.19,0,0,0,121.16,19.44Z"/><path class="cls-1" d="M133.12,19.87h-3a.33.33,0,0,0-.25.1.39.39,0,0,0-.1.25V32.66a.4.4,0,0,0,.1.26.39.39,0,0,0,.25.1h3a.37.37,0,0,0,.25-.1.35.35,0,0,0,.1-.26V20.22a.34.34,0,0,0-.35-.35Z"/><path class="cls-1" d="M143.51,19.44a4.79,4.79,0,0,0-3.06,1.07v-.29a.39.39,0,0,0-.1-.25.35.35,0,0,0-.26-.1h-2.75a.34.34,0,0,0-.35.35V32.66a.36.36,0,0,0,.35.36h3a.33.33,0,0,0,.25-.11.32.32,0,0,0,.1-.25V26.74a5.55,5.55,0,0,1,.48-2.91,2.18,2.18,0,0,1,1.75-.95,1.83,1.83,0,0,1,1.87,1.38,6.84,6.84,0,0,1,.29,2.26v6.14a.33.33,0,0,0,.11.25.32.32,0,0,0,.24.11h3a.32.32,0,0,0,.24-.11.33.33,0,0,0,.11-.25V25.94c0-1,0-3.13-1.23-4.65A5.46,5.46,0,0,0,143.51,19.44Z"/><path class="cls-1" d="M169.64,19.87h-2.73a.37.37,0,0,0-.25.1.35.35,0,0,0-.1.25v.72a6.74,6.74,0,0,0-.65-.51,5.65,5.65,0,0,0-3.17-1,6.67,6.67,0,0,0-6.59,6.92c0,4.32,3,7,6.41,7.06a6.73,6.73,0,0,0,4-1.47v.71a.35.35,0,0,0,.1.26.37.37,0,0,0,.25.1h2.73a.37.37,0,0,0,.25-.1.36.36,0,0,0,.11-.26V20.22a.36.36,0,0,0-.36-.35ZM163.19,30a3.38,3.38,0,0,1-3.36-3.48,3.44,3.44,0,0,1,3.36-3.62,3.29,3.29,0,0,1,3.28,3.53A3.32,3.32,0,0,1,163.19,30Z"/><path class="cls-1" d="M180.13,19.44a4.81,4.81,0,0,0-3.06,1.07v-.29a.34.34,0,0,0-.35-.35H174a.36.36,0,0,0-.36.35V32.66A.38.38,0,0,0,174,33h3a.38.38,0,0,0,.36-.36V26.74a5.56,5.56,0,0,1,.47-2.91,2.22,2.22,0,0,1,1.75-.95,1.83,1.83,0,0,1,1.87,1.38,6.59,6.59,0,0,1,.29,2.26v6.14A.38.38,0,0,0,182,33h3a.34.34,0,0,0,.25-.11.32.32,0,0,0,.1-.25V25.94c0-1,0-3.13-1.23-4.65A5.45,5.45,0,0,0,180.13,19.44Z"/><path class="cls-1" d="M201.54,19.87h-2.9a.31.31,0,0,0-.24.1.36.36,0,0,0-.11.25v.6a5,5,0,0,0-3.66-1.38,6.83,6.83,0,0,0-6.7,6.88,7,7,0,0,0,6.72,7.1,5.31,5.31,0,0,0,3.61-1.28c-.1,1.71-.41,3.42-3.37,3.42a3.6,3.6,0,0,1-2.73-1.39.33.33,0,0,0-.26-.13h-3.41a.35.35,0,0,0-.29.15.39.39,0,0,0,0,.33,6.94,6.94,0,0,0,6.59,4.35,7.21,7.21,0,0,0,4.66-1.42c1.42-1.09,2.38-3,2.48-5.85,0-.14,0-1.07,0-1.22V20.22a.39.39,0,0,0-.1-.25A.35.35,0,0,0,201.54,19.87ZM195,30a3.45,3.45,0,0,1-3.37-3.64,3.34,3.34,0,0,1,3.28-3.46,3.47,3.47,0,0,1,3.31,3.44A3.41,3.41,0,0,1,195,30Z"/><path class="cls-1" d="M211.27,19.37a7,7,0,0,0-6.9,7.11,6.9,6.9,0,0,0,6.92,6.94c3.09,0,5.49-1.62,6.26-4a.31.31,0,0,0-.05-.31.35.35,0,0,0-.28-.15h-3.06a.42.42,0,0,0-.31.19,3.18,3.18,0,0,1-2.65,1.16,2.76,2.76,0,0,1-2.86-2.17h9.18a.36.36,0,0,0,.35-.28,7.48,7.48,0,0,0,.18-1.58A6.88,6.88,0,0,0,211.27,19.37Zm-3,5.65a3.22,3.22,0,0,1,3-2.21A2.94,2.94,0,0,1,214.21,25Z"/><path class="cls-1" d="M224,16.42h-3a.36.36,0,0,0-.36.35V32.66a.38.38,0,0,0,.36.36h3a.32.32,0,0,0,.24-.11.33.33,0,0,0,.11-.25V16.77a.36.36,0,0,0-.11-.25A.35.35,0,0,0,224,16.42Z"/><path class="cls-1" d="M232.9,24.59a9.11,9.11,0,0,1-1.58-.58.63.63,0,0,1-.28-.55.87.87,0,0,1,.8-.89.93.93,0,0,1,1.07.82.36.36,0,0,0,.35.28h2.68a.36.36,0,0,0,.26-.11.39.39,0,0,0,.09-.26,4.14,4.14,0,0,0-4.41-3.88,4.36,4.36,0,0,0-4.53,4.17,4,4,0,0,0,3,3.87,13.52,13.52,0,0,1,2.14.81.92.92,0,0,1,.44.85c0,.37-.18,1.18-1,1.18a1.39,1.39,0,0,1-1.42-1.23.35.35,0,0,0-.34-.27h-2.93a.34.34,0,0,0-.35.38,4.78,4.78,0,0,0,1,2.86c1.06,1.31,3.25,1.36,4,1.36a4.72,4.72,0,0,0,4.71-4.79C236.64,25.89,234.44,25,232.9,24.59Z"/><path class="cls-1" d="M26.28,0A26.28,26.28,0,1,0,52.55,26.28,26.27,26.27,0,0,0,26.28,0ZM22.41,9.52c1.33-.78,2.87.1,3.45,2s-.05,3.91-1.4,4.59-2.89-.19-3.44-1.95A4,4,0,0,1,22.41,9.52ZM34.66,44.27c0,3.79-4.26-6.43-9.55-7.3s-9.54,5.84-9.55,2.89c0-1.85,1.66-6.25,4.22-9.22C12.84,27.9,7.67,20.09,7.63,17.4c0-3.25,7.52,2.44,16.72,1.11S41.11,5.63,41.06,10.65C41,14.74,36,26.26,29.17,30.24,32.44,34.15,34.67,41.51,34.66,44.27Z"/><path class="cls-1" d="M242.32,21c0-.48-.28-.71-.88-.71h-1v2.5h.39V21.68h.41l.68,1.08h.42l-.72-1.11A.64.64,0,0,0,242.32,21Zm-1,.4h-.4v-.8h.51c.26,0,.55.05.55.39S241.62,21.37,241.27,21.37Z"/><path class="cls-1" d="M241.31,19.37a2.14,2.14,0,1,0,2.15,2.13A2.13,2.13,0,0,0,241.31,19.37Zm0,4a1.83,1.83,0,1,1,1.76-1.84A1.77,1.77,0,0,1,241.31,23.34Z"/></g></g></svg>